<?xml version="1.0" encoding="utf-8" standalone="no"?>
<!DOCTYPE svg PUBLIC "-//W3C//DTD SVG 1.1//EN"
  "http://www.w3.org/Graphics/SVG/1.1/DTD/svg11.dtd">
<!-- Created with matplotlib (https://matplotlib.org/) -->
<svg height="345.6pt" version="1.1" viewBox="0 0 460.8 345.6" width="460.8pt" xmlns="http://www.w3.org/2000/svg" xmlns:xlink="http://www.w3.org/1999/xlink">
 <defs>
  <style type="text/css">
*{stroke-linecap:butt;stroke-linejoin:round;}
  </style>
 </defs>
 <g id="figure_1">
  <g id="patch_1">
   <path d="M 0 345.6 
L 460.8 345.6 
L 460.8 0 
L 0 0 
z
" style="fill:#ffffff;"/>
  </g>
  <g id="axes_1">
   <g id="patch_2">
    <path d="M 57.6 307.584 
L 414.72 307.584 
L 414.72 41.472 
L 57.6 41.472 
z
" style="fill:#ffffff;"/>
   </g>
   <g id="matplotlib.axis_1">
    <g id="xtick_1">
     <g id="line2d_1">
      <path clip-path="url(#p8616396ac9)" d="M 73.832727 307.584 
L 73.832727 41.472 
" style="fill:none;stroke:#b0b0b0;stroke-linecap:square;stroke-width:0.8;"/>
     </g>
     <g id="line2d_2">
      <defs>
       <path d="M 0 0 
L 0 3.5 
" id="md623f20284" style="stroke:#000000;stroke-width:0.8;"/>
      </defs>
      <g>
       <use style="stroke:#000000;stroke-width:0.8;" x="73.832727" xlink:href="#md623f20284" y="307.584"/>
      </g>
     </g>
     <g id="text_1">
      <!-- 0 -->
      <defs>
       <path d="M 31.78125 66.40625 
Q 24.171875 66.40625 20.328125 58.90625 
Q 16.5 51.421875 16.5 36.375 
Q 16.5 21.390625 20.328125 13.890625 
Q 24.171875 6.390625 31.78125 6.390625 
Q 39.453125 6.390625 43.28125 13.890625 
Q 47.125 21.390625 47.125 36.375 
Q 47.125 51.421875 43.28125 58.90625 
Q 39.453125 66.40625 31.78125 66.40625 
z
M 31.78125 74.21875 
Q 44.046875 74.21875 50.515625 64.515625 
Q 56.984375 54.828125 56.984375 36.375 
Q 56.984375 17.96875 50.515625 8.265625 
Q 44.046875 -1.421875 31.78125 -1.421875 
Q 19.53125 -1.421875 13.0625 8.265625 
Q 6.59375 17.96875 6.59375 36.375 
Q 6.59375 54.828125 13.0625 64.515625 
Q 19.53125 74.21875 31.78125 74.21875 
z
" id="DejaVuSans-48"/>
      </defs>
      <g transform="translate(70.651477 322.182437)scale(0.1 -0.1)">
       <use xlink:href="#DejaVuSans-48"/>
      </g>
     </g>
    </g>
    <g id="xtick_2">
     <g id="line2d_3">
      <path clip-path="url(#p8616396ac9)" d="M 127.986947 307.584 
L 127.986947 41.472 
" style="fill:none;stroke:#b0b0b0;stroke-linecap:square;stroke-width:0.8;"/>
     </g>
     <g id="line2d_4">
      <g>
       <use style="stroke:#000000;stroke-width:0.8;" x="127.986947" xlink:href="#md623f20284" y="307.584"/>
      </g>
     </g>
     <g id="text_2">
      <!-- 200 -->
      <defs>
       <path d="M 19.1875 8.296875 
L 53.609375 8.296875 
L 53.609375 0 
L 7.328125 0 
L 7.328125 8.296875 
Q 12.9375 14.109375 22.625 23.890625 
Q 32.328125 33.6875 34.8125 36.53125 
Q 39.546875 41.84375 41.421875 45.53125 
Q 43.3125 49.21875 43.3125 52.78125 
Q 43.3125 58.59375 39.234375 62.25 
Q 35.15625 65.921875 28.609375 65.921875 
Q 23.96875 65.921875 18.8125 64.3125 
Q 13.671875 62.703125 7.8125 59.421875 
L 7.8125 69.390625 
Q 13.765625 71.78125 18.9375 73 
Q 24.125 74.21875 28.421875 74.21875 
Q 39.75 74.21875 46.484375 68.546875 
Q 53.21875 62.890625 53.21875 53.421875 
Q 53.21875 48.921875 51.53125 44.890625 
Q 49.859375 40.875 45.40625 35.40625 
Q 44.1875 33.984375 37.640625 27.21875 
Q 31.109375 20.453125 19.1875 8.296875 
z
" id="DejaVuSans-50"/>
      </defs>
      <g transform="translate(118.443197 322.182437)scale(0.1 -0.1)">
       <use xlink:href="#DejaVuSans-50"/>
       <use x="63.623047" xlink:href="#DejaVuSans-48"/>
       <use x="127.246094" xlink:href="#DejaVuSans-48"/>
      </g>
     </g>
    </g>
    <g id="xtick_3">
     <g id="line2d_5">
      <path clip-path="url(#p8616396ac9)" d="M 182.141166 307.584 
L 182.141166 41.472 
" style="fill:none;stroke:#b0b0b0;stroke-linecap:square;stroke-width:0.8;"/>
     </g>
     <g id="line2d_6">
      <g>
       <use style="stroke:#000000;stroke-width:0.8;" x="182.141166" xlink:href="#md623f20284" y="307.584"/>
      </g>
     </g>
     <g id="text_3">
      <!-- 400 -->
      <defs>
       <path d="M 37.796875 64.3125 
L 12.890625 25.390625 
L 37.796875 25.390625 
z
M 35.203125 72.90625 
L 47.609375 72.90625 
L 47.609375 25.390625 
L 58.015625 25.390625 
L 58.015625 17.1875 
L 47.609375 17.1875 
L 47.609375 0 
L 37.796875 0 
L 37.796875 17.1875 
L 4.890625 17.1875 
L 4.890625 26.703125 
z
" id="DejaVuSans-52"/>
      </defs>
      <g transform="translate(172.597416 322.182437)scale(0.1 -0.1)">
       <use xlink:href="#DejaVuSans-52"/>
       <use x="63.623047" xlink:href="#DejaVuSans-48"/>
       <use x="127.246094" xlink:href="#DejaVuSans-48"/>
      </g>
     </g>
    </g>
    <g id="xtick_4">
     <g id="line2d_7">
      <path clip-path="url(#p8616396ac9)" d="M 236.295386 307.584 
L 236.295386 41.472 
" style="fill:none;stroke:#b0b0b0;stroke-linecap:square;stroke-width:0.8;"/>
     </g>
     <g id="line2d_8">
      <g>
       <use style="stroke:#000000;stroke-width:0.8;" x="236.295386" xlink:href="#md623f20284" y="307.584"/>
      </g>
     </g>
     <g id="text_4">
      <!-- 600 -->
      <defs>
       <path d="M 33.015625 40.375 
Q 26.375 40.375 22.484375 35.828125 
Q 18.609375 31.296875 18.609375 23.390625 
Q 18.609375 15.53125 22.484375 10.953125 
Q 26.375 6.390625 33.015625 6.390625 
Q 39.65625 6.390625 43.53125 10.953125 
Q 47.40625 15.53125 47.40625 23.390625 
Q 47.40625 31.296875 43.53125 35.828125 
Q 39.65625 40.375 33.015625 40.375 
z
M 52.59375 71.296875 
L 52.59375 62.3125 
Q 48.875 64.0625 45.09375 64.984375 
Q 41.3125 65.921875 37.59375 65.921875 
Q 27.828125 65.921875 22.671875 59.328125 
Q 17.53125 52.734375 16.796875 39.40625 
Q 19.671875 43.65625 24.015625 45.921875 
Q 28.375 48.1875 33.59375 48.1875 
Q 44.578125 48.1875 50.953125 41.515625 
Q 57.328125 34.859375 57.328125 23.390625 
Q 57.328125 12.15625 50.6875 5.359375 
Q 44.046875 -1.421875 33.015625 -1.421875 
Q 20.359375 -1.421875 13.671875 8.265625 
Q 6.984375 17.96875 6.984375 36.375 
Q 6.984375 53.65625 15.1875 63.9375 
Q 23.390625 74.21875 37.203125 74.21875 
Q 40.921875 74.21875 44.703125 73.484375 
Q 48.484375 72.75 52.59375 71.296875 
z
" id="DejaVuSans-54"/>
      </defs>
      <g transform="translate(226.751636 322.182437)scale(0.1 -0.1)">
       <use xlink:href="#DejaVuSans-54"/>
       <use x="63.623047" xlink:href="#DejaVuSans-48"/>
       <use x="127.246094" xlink:href="#DejaVuSans-48"/>
      </g>
     </g>
    </g>
    <g id="xtick_5">
     <g id="line2d_9">
      <path clip-path="url(#p8616396ac9)" d="M 290.449605 307.584 
L 290.449605 41.472 
" style="fill:none;stroke:#b0b0b0;stroke-linecap:square;stroke-width:0.8;"/>
     </g>
     <g id="line2d_10">
      <g>
       <use style="stroke:#000000;stroke-width:0.8;" x="290.449605" xlink:href="#md623f20284" y="307.584"/>
      </g>
     </g>
     <g id="text_5">
      <!-- 800 -->
      <defs>
       <path d="M 31.78125 34.625 
Q 24.75 34.625 20.71875 30.859375 
Q 16.703125 27.09375 16.703125 20.515625 
Q 16.703125 13.921875 20.71875 10.15625 
Q 24.75 6.390625 31.78125 6.390625 
Q 38.8125 6.390625 42.859375 10.171875 
Q 46.921875 13.96875 46.921875 20.515625 
Q 46.921875 27.09375 42.890625 30.859375 
Q 38.875 34.625 31.78125 34.625 
z
M 21.921875 38.8125 
Q 15.578125 40.375 12.03125 44.71875 
Q 8.5 49.078125 8.5 55.328125 
Q 8.5 64.0625 14.71875 69.140625 
Q 20.953125 74.21875 31.78125 74.21875 
Q 42.671875 74.21875 48.875 69.140625 
Q 55.078125 64.0625 55.078125 55.328125 
Q 55.078125 49.078125 51.53125 44.71875 
Q 48 40.375 41.703125 38.8125 
Q 48.828125 37.15625 52.796875 32.3125 
Q 56.78125 27.484375 56.78125 20.515625 
Q 56.78125 9.90625 50.3125 4.234375 
Q 43.84375 -1.421875 31.78125 -1.421875 
Q 19.734375 -1.421875 13.25 4.234375 
Q 6.78125 9.90625 6.78125 20.515625 
Q 6.78125 27.484375 10.78125 32.3125 
Q 14.796875 37.15625 21.921875 38.8125 
z
M 18.3125 54.390625 
Q 18.3125 48.734375 21.84375 45.5625 
Q 25.390625 42.390625 31.78125 42.390625 
Q 38.140625 42.390625 41.71875 45.5625 
Q 45.3125 48.734375 45.3125 54.390625 
Q 45.3125 60.0625 41.71875 63.234375 
Q 38.140625 66.40625 31.78125 66.40625 
Q 25.390625 66.40625 21.84375 63.234375 
Q 18.3125 60.0625 18.3125 54.390625 
z
" id="DejaVuSans-56"/>
      </defs>
      <g transform="translate(280.905855 322.182437)scale(0.1 -0.1)">
       <use xlink:href="#DejaVuSans-56"/>
       <use x="63.623047" xlink:href="#DejaVuSans-48"/>
       <use x="127.246094" xlink:href="#DejaVuSans-48"/>
      </g>
     </g>
    </g>
    <g id="xtick_6">
     <g id="line2d_11">
      <path clip-path="url(#p8616396ac9)" d="M 344.603824 307.584 
L 344.603824 41.472 
" style="fill:none;stroke:#b0b0b0;stroke-linecap:square;stroke-width:0.8;"/>
     </g>
     <g id="line2d_12">
      <g>
       <use style="stroke:#000000;stroke-width:0.8;" x="344.603824" xlink:href="#md623f20284" y="307.584"/>
      </g>
     </g>
     <g id="text_6">
      <!-- 1000 -->
      <defs>
       <path d="M 12.40625 8.296875 
L 28.515625 8.296875 
L 28.515625 63.921875 
L 10.984375 60.40625 
L 10.984375 69.390625 
L 28.421875 72.90625 
L 38.28125 72.90625 
L 38.28125 8.296875 
L 54.390625 8.296875 
L 54.390625 0 
L 12.40625 0 
z
" id="DejaVuSans-49"/>
      </defs>
      <g transform="translate(331.878824 322.182437)scale(0.1 -0.1)">
       <use xlink:href="#DejaVuSans-49"/>
       <use x="63.623047" xlink:href="#DejaVuSans-48"/>
       <use x="127.246094" xlink:href="#DejaVuSans-48"/>
       <use x="190.869141" xlink:href="#DejaVuSans-48"/>
      </g>
     </g>
    </g>
    <g id="xtick_7">
     <g id="line2d_13">
      <path clip-path="url(#p8616396ac9)" d="M 398.758044 307.584 
L 398.758044 41.472 
" style="fill:none;stroke:#b0b0b0;stroke-linecap:square;stroke-width:0.8;"/>
     </g>
     <g id="line2d_14">
      <g>
       <use style="stroke:#000000;stroke-width:0.8;" x="398.758044" xlink:href="#md623f20284" y="307.584"/>
      </g>
     </g>
     <g id="text_7">
      <!-- 1200 -->
      <g transform="translate(386.033044 322.182437)scale(0.1 -0.1)">
       <use xlink:href="#DejaVuSans-49"/>
       <use x="63.623047" xlink:href="#DejaVuSans-50"/>
       <use x="127.246094" xlink:href="#DejaVuSans-48"/>
       <use x="190.869141" xlink:href="#DejaVuSans-48"/>
      </g>
     </g>
    </g>
    <g id="text_8">
     <!-- Generations -->
     <defs>
      <path d="M 59.515625 10.40625 
L 59.515625 29.984375 
L 43.40625 29.984375 
L 43.40625 38.09375 
L 69.28125 38.09375 
L 69.28125 6.78125 
Q 63.578125 2.734375 56.6875 0.65625 
Q 49.8125 -1.421875 42 -1.421875 
Q 24.90625 -1.421875 15.25 8.5625 
Q 5.609375 18.5625 5.609375 36.375 
Q 5.609375 54.25 15.25 64.234375 
Q 24.90625 74.21875 42 74.21875 
Q 49.125 74.21875 55.546875 72.453125 
Q 61.96875 70.703125 67.390625 67.28125 
L 67.390625 56.78125 
Q 61.921875 61.421875 55.765625 63.765625 
Q 49.609375 66.109375 42.828125 66.109375 
Q 29.4375 66.109375 22.71875 58.640625 
Q 16.015625 51.171875 16.015625 36.375 
Q 16.015625 21.625 22.71875 14.15625 
Q 29.4375 6.6875 42.828125 6.6875 
Q 48.046875 6.6875 52.140625 7.59375 
Q 56.25 8.5 59.515625 10.40625 
z
" id="DejaVuSans-71"/>
      <path d="M 56.203125 29.59375 
L 56.203125 25.203125 
L 14.890625 25.203125 
Q 15.484375 15.921875 20.484375 11.0625 
Q 25.484375 6.203125 34.421875 6.203125 
Q 39.59375 6.203125 44.453125 7.46875 
Q 49.3125 8.734375 54.109375 11.28125 
L 54.109375 2.78125 
Q 49.265625 0.734375 44.1875 -0.34375 
Q 39.109375 -1.421875 33.890625 -1.421875 
Q 20.796875 -1.421875 13.15625 6.1875 
Q 5.515625 13.8125 5.515625 26.8125 
Q 5.515625 40.234375 12.765625 48.109375 
Q 20.015625 56 32.328125 56 
Q 43.359375 56 49.78125 48.890625 
Q 56.203125 41.796875 56.203125 29.59375 
z
M 47.21875 32.234375 
Q 47.125 39.59375 43.09375 43.984375 
Q 39.0625 48.390625 32.421875 48.390625 
Q 24.90625 48.390625 20.390625 44.140625 
Q 15.875 39.890625 15.1875 32.171875 
z
" id="DejaVuSans-101"/>
      <path d="M 54.890625 33.015625 
L 54.890625 0 
L 45.90625 0 
L 45.90625 32.71875 
Q 45.90625 40.484375 42.875 44.328125 
Q 39.84375 48.1875 33.796875 48.1875 
Q 26.515625 48.1875 22.3125 43.546875 
Q 18.109375 38.921875 18.109375 30.90625 
L 18.109375 0 
L 9.078125 0 
L 9.078125 54.6875 
L 18.109375 54.6875 
L 18.109375 46.1875 
Q 21.34375 51.125 25.703125 53.5625 
Q 30.078125 56 35.796875 56 
Q 45.21875 56 50.046875 50.171875 
Q 54.890625 44.34375 54.890625 33.015625 
z
" id="DejaVuSans-110"/>
      <path d="M 41.109375 46.296875 
Q 39.59375 47.171875 37.8125 47.578125 
Q 36.03125 48 33.890625 48 
Q 26.265625 48 22.1875 43.046875 
Q 18.109375 38.09375 18.109375 28.8125 
L 18.109375 0 
L 9.078125 0 
L 9.078125 54.6875 
L 18.109375 54.6875 
L 18.109375 46.1875 
Q 20.953125 51.171875 25.484375 53.578125 
Q 30.03125 56 36.53125 56 
Q 37.453125 56 38.578125 55.875 
Q 39.703125 55.765625 41.0625 55.515625 
z
" id="DejaVuSans-114"/>
      <path d="M 34.28125 27.484375 
Q 23.390625 27.484375 19.1875 25 
Q 14.984375 22.515625 14.984375 16.5 
Q 14.984375 11.71875 18.140625 8.90625 
Q 21.296875 6.109375 26.703125 6.109375 
Q 34.1875 6.109375 38.703125 11.40625 
Q 43.21875 16.703125 43.21875 25.484375 
L 43.21875 27.484375 
z
M 52.203125 31.203125 
L 52.203125 0 
L 43.21875 0 
L 43.21875 8.296875 
Q 40.140625 3.328125 35.546875 0.953125 
Q 30.953125 -1.421875 24.3125 -1.421875 
Q 15.921875 -1.421875 10.953125 3.296875 
Q 6 8.015625 6 15.921875 
Q 6 25.140625 12.171875 29.828125 
Q 18.359375 34.515625 30.609375 34.515625 
L 43.21875 34.515625 
L 43.21875 35.40625 
Q 43.21875 41.609375 39.140625 45 
Q 35.0625 48.390625 27.6875 48.390625 
Q 23 48.390625 18.546875 47.265625 
Q 14.109375 46.140625 10.015625 43.890625 
L 10.015625 52.203125 
Q 14.9375 54.109375 19.578125 55.046875 
Q 24.21875 56 28.609375 56 
Q 40.484375 56 46.34375 49.84375 
Q 52.203125 43.703125 52.203125 31.203125 
z
" id="DejaVuSans-97"/>
      <path d="M 18.3125 70.21875 
L 18.3125 54.6875 
L 36.8125 54.6875 
L 36.8125 47.703125 
L 18.3125 47.703125 
L 18.3125 18.015625 
Q 18.3125 11.328125 20.140625 9.421875 
Q 21.96875 7.515625 27.59375 7.515625 
L 36.8125 7.515625 
L 36.8125 0 
L 27.59375 0 
Q 17.1875 0 13.234375 3.875 
Q 9.28125 7.765625 9.28125 18.015625 
L 9.28125 47.703125 
L 2.6875 47.703125 
L 2.6875 54.6875 
L 9.28125 54.6875 
L 9.28125 70.21875 
z
" id="DejaVuSans-116"/>
      <path d="M 9.421875 54.6875 
L 18.40625 54.6875 
L 18.40625 0 
L 9.421875 0 
z
M 9.421875 75.984375 
L 18.40625 75.984375 
L 18.40625 64.59375 
L 9.421875 64.59375 
z
" id="DejaVuSans-105"/>
      <path d="M 30.609375 48.390625 
Q 23.390625 48.390625 19.1875 42.75 
Q 14.984375 37.109375 14.984375 27.296875 
Q 14.984375 17.484375 19.15625 11.84375 
Q 23.34375 6.203125 30.609375 6.203125 
Q 37.796875 6.203125 41.984375 11.859375 
Q 46.1875 17.53125 46.1875 27.296875 
Q 46.1875 37.015625 41.984375 42.703125 
Q 37.796875 48.390625 30.609375 48.390625 
z
M 30.609375 56 
Q 42.328125 56 49.015625 48.375 
Q 55.71875 40.765625 55.71875 27.296875 
Q 55.71875 13.875 49.015625 6.21875 
Q 42.328125 -1.421875 30.609375 -1.421875 
Q 18.84375 -1.421875 12.171875 6.21875 
Q 5.515625 13.875 5.515625 27.296875 
Q 5.515625 40.765625 12.171875 48.375 
Q 18.84375 56 30.609375 56 
z
" id="DejaVuSans-111"/>
      <path d="M 44.28125 53.078125 
L 44.28125 44.578125 
Q 40.484375 46.53125 36.375 47.5 
Q 32.28125 48.484375 27.875 48.484375 
Q 21.1875 48.484375 17.84375 46.4375 
Q 14.5 44.390625 14.5 40.28125 
Q 14.5 37.15625 16.890625 35.375 
Q 19.28125 33.59375 26.515625 31.984375 
L 29.59375 31.296875 
Q 39.15625 29.25 43.1875 25.515625 
Q 47.21875 21.78125 47.21875 15.09375 
Q 47.21875 7.46875 41.1875 3.015625 
Q 35.15625 -1.421875 24.609375 -1.421875 
Q 20.21875 -1.421875 15.453125 -0.5625 
Q 10.6875 0.296875 5.421875 2 
L 5.421875 11.28125 
Q 10.40625 8.6875 15.234375 7.390625 
Q 20.0625 6.109375 24.8125 6.109375 
Q 31.15625 6.109375 34.5625 8.28125 
Q 37.984375 10.453125 37.984375 14.40625 
Q 37.984375 18.0625 35.515625 20.015625 
Q 33.0625 21.96875 24.703125 23.78125 
L 21.578125 24.515625 
Q 13.234375 26.265625 9.515625 29.90625 
Q 5.8125 33.546875 5.8125 39.890625 
Q 5.8125 47.609375 11.28125 51.796875 
Q 16.75 56 26.8125 56 
Q 31.78125 56 36.171875 55.265625 
Q 40.578125 54.546875 44.28125 53.078125 
z
" id="DejaVuSans-115"/>
     </defs>
     <g transform="translate(205.662344 335.860562)scale(0.1 -0.1)">
      <use xlink:href="#DejaVuSans-71"/>
      <use x="77.490234" xlink:href="#DejaVuSans-101"/>
      <use x="139.013672" xlink:href="#DejaVuSans-110"/>
      <use x="202.392578" xlink:href="#DejaVuSans-101"/>
      <use x="263.916016" xlink:href="#DejaVuSans-114"/>
      <use x="305.029297" xlink:href="#DejaVuSans-97"/>
      <use x="366.308594" xlink:href="#DejaVuSans-116"/>
      <use x="405.517578" xlink:href="#DejaVuSans-105"/>
      <use x="433.300781" xlink:href="#DejaVuSans-111"/>
      <use x="494.482422" xlink:href="#DejaVuSans-110"/>
      <use x="557.861328" xlink:href="#DejaVuSans-115"/>
     </g>
    </g>
   </g>
   <g id="matplotlib.axis_2">
    <g id="ytick_1">
     <g id="line2d_15">
      <path clip-path="url(#p8616396ac9)" d="M 57.6 277.283684 
L 414.72 277.283684 
" style="fill:none;stroke:#b0b0b0;stroke-linecap:square;stroke-width:0.8;"/>
     </g>
     <g id="line2d_16">
      <defs>
       <path d="M 0 0 
L -3.5 0 
" id="md76600bd2a" style="stroke:#000000;stroke-width:0.8;"/>
      </defs>
      <g>
       <use style="stroke:#000000;stroke-width:0.8;" x="57.6" xlink:href="#md76600bd2a" y="277.283684"/>
      </g>
     </g>
     <g id="text_9">
      <!-- 160 -->
      <g transform="translate(31.5125 281.082903)scale(0.1 -0.1)">
       <use xlink:href="#DejaVuSans-49"/>
       <use x="63.623047" xlink:href="#DejaVuSans-54"/>
       <use x="127.246094" xlink:href="#DejaVuSans-48"/>
      </g>
     </g>
    </g>
    <g id="ytick_2">
     <g id="line2d_17">
      <path clip-path="url(#p8616396ac9)" d="M 57.6 232.540548 
L 414.72 232.540548 
" style="fill:none;stroke:#b0b0b0;stroke-linecap:square;stroke-width:0.8;"/>
     </g>
     <g id="line2d_18">
      <g>
       <use style="stroke:#000000;stroke-width:0.8;" x="57.6" xlink:href="#md76600bd2a" y="232.540548"/>
      </g>
     </g>
     <g id="text_10">
      <!-- 180 -->
      <g transform="translate(31.5125 236.339766)scale(0.1 -0.1)">
       <use xlink:href="#DejaVuSans-49"/>
       <use x="63.623047" xlink:href="#DejaVuSans-56"/>
       <use x="127.246094" xlink:href="#DejaVuSans-48"/>
      </g>
     </g>
    </g>
    <g id="ytick_3">
     <g id="line2d_19">
      <path clip-path="url(#p8616396ac9)" d="M 57.6 187.797411 
L 414.72 187.797411 
" style="fill:none;stroke:#b0b0b0;stroke-linecap:square;stroke-width:0.8;"/>
     </g>
     <g id="line2d_20">
      <g>
       <use style="stroke:#000000;stroke-width:0.8;" x="57.6" xlink:href="#md76600bd2a" y="187.797411"/>
      </g>
     </g>
     <g id="text_11">
      <!-- 200 -->
      <g transform="translate(31.5125 191.596629)scale(0.1 -0.1)">
       <use xlink:href="#DejaVuSans-50"/>
       <use x="63.623047" xlink:href="#DejaVuSans-48"/>
       <use x="127.246094" xlink:href="#DejaVuSans-48"/>
      </g>
     </g>
    </g>
    <g id="ytick_4">
     <g id="line2d_21">
      <path clip-path="url(#p8616396ac9)" d="M 57.6 143.054274 
L 414.72 143.054274 
" style="fill:none;stroke:#b0b0b0;stroke-linecap:square;stroke-width:0.8;"/>
     </g>
     <g id="line2d_22">
      <g>
       <use style="stroke:#000000;stroke-width:0.8;" x="57.6" xlink:href="#md76600bd2a" y="143.054274"/>
      </g>
     </g>
     <g id="text_12">
      <!-- 220 -->
      <g transform="translate(31.5125 146.853493)scale(0.1 -0.1)">
       <use xlink:href="#DejaVuSans-50"/>
       <use x="63.623047" xlink:href="#DejaVuSans-50"/>
       <use x="127.246094" xlink:href="#DejaVuSans-48"/>
      </g>
     </g>
    </g>
    <g id="ytick_5">
     <g id="line2d_23">
      <path clip-path="url(#p8616396ac9)" d="M 57.6 98.311137 
L 414.72 98.311137 
" style="fill:none;stroke:#b0b0b0;stroke-linecap:square;stroke-width:0.8;"/>
     </g>
     <g id="line2d_24">
      <g>
       <use style="stroke:#000000;stroke-width:0.8;" x="57.6" xlink:href="#md76600bd2a" y="98.311137"/>
      </g>
     </g>
     <g id="text_13">
      <!-- 240 -->
      <g transform="translate(31.5125 102.110356)scale(0.1 -0.1)">
       <use xlink:href="#DejaVuSans-50"/>
       <use x="63.623047" xlink:href="#DejaVuSans-52"/>
       <use x="127.246094" xlink:href="#DejaVuSans-48"/>
      </g>
     </g>
    </g>
    <g id="ytick_6">
     <g id="line2d_25">
      <path clip-path="url(#p8616396ac9)" d="M 57.6 53.568 
L 414.72 53.568 
" style="fill:none;stroke:#b0b0b0;stroke-linecap:square;stroke-width:0.8;"/>
     </g>
     <g id="line2d_26">
      <g>
       <use style="stroke:#000000;stroke-width:0.8;" x="57.6" xlink:href="#md76600bd2a" y="53.568"/>
      </g>
     </g>
     <g id="text_14">
      <!-- 260 -->
      <g transform="translate(31.5125 57.367219)scale(0.1 -0.1)">
       <use xlink:href="#DejaVuSans-50"/>
       <use x="63.623047" xlink:href="#DejaVuSans-54"/>
       <use x="127.246094" xlink:href="#DejaVuSans-48"/>
      </g>
     </g>
    </g>
    <g id="text_15">
     <!-- Fitness -->
     <defs>
      <path d="M 9.8125 72.90625 
L 51.703125 72.90625 
L 51.703125 64.59375 
L 19.671875 64.59375 
L 19.671875 43.109375 
L 48.578125 43.109375 
L 48.578125 34.8125 
L 19.671875 34.8125 
L 19.671875 0 
L 9.8125 0 
z
" id="DejaVuSans-70"/>
     </defs>
     <g transform="translate(25.432812 191.845187)rotate(-90)scale(0.1 -0.1)">
      <use xlink:href="#DejaVuSans-70"/>
      <use x="50.269531" xlink:href="#DejaVuSans-105"/>
      <use x="78.052734" xlink:href="#DejaVuSans-116"/>
      <use x="117.261719" xlink:href="#DejaVuSans-110"/>
      <use x="180.640625" xlink:href="#DejaVuSans-101"/>
      <use x="242.164062" xlink:href="#DejaVuSans-115"/>
      <use x="294.263672" xlink:href="#DejaVuSans-115"/>
     </g>
    </g>
   </g>
   <g id="line2d_27">
    <path clip-path="url(#p8616396ac9)" d="M 73.832727 292.854296 
L 74.103498 294.957224 
L 79.248149 294.957224 
L 79.51892 295.488 
L 79.789691 283.010806 
L 80.060463 288.648441 
L 80.331234 275.807161 
L 80.872776 271.064388 
L 81.143547 256.164924 
L 81.414318 255.583263 
L 81.685089 269.632608 
L 81.95586 246.187204 
L 82.226631 255.896465 
L 82.497402 238.267669 
L 82.768173 237.820238 
L 83.038945 235.583081 
L 83.309716 243.994791 
L 83.580487 260.81821 
L 83.851258 234.777704 
L 84.122029 238.178183 
L 84.3928 223.368205 
L 84.663571 240.370597 
L 84.934342 193.166587 
L 85.205113 199.206911 
L 85.475884 186.320887 
L 86.017427 200.325489 
L 86.288198 185.381281 
L 86.558969 183.054638 
L 86.82974 162.070107 
L 87.100511 182.920409 
L 87.371282 174.508699 
L 87.642053 186.007685 
L 87.912824 166.275962 
L 88.183595 158.803858 
L 88.454367 179.296215 
L 88.725138 190.839944 
L 88.995909 161.085758 
L 89.26668 170.168615 
L 89.808222 154.732233 
L 90.078993 136.521776 
L 90.349764 150.302662 
L 90.620535 156.208756 
L 90.891306 164.799438 
L 91.162077 154.911205 
L 91.432849 139.251107 
L 91.70362 132.181692 
L 91.974391 158.087968 
L 92.515933 139.788025 
L 93.057475 161.309474 
L 93.328246 152.763535 
L 93.599017 156.477215 
L 93.869788 154.55326 
L 94.14056 146.946927 
L 94.411331 150.078946 
L 94.682102 149.452542 
L 94.952873 147.483844 
L 95.223644 143.904393 
L 95.494415 180.325307 
L 95.765186 137.550868 
L 96.035957 147.528587 
L 96.306728 175.80625 
L 96.848271 135.089995 
L 97.119042 172.853203 
L 97.389813 160.414611 
L 97.660584 172.942689 
L 97.931355 158.535399 
L 98.202126 137.640354 
L 98.472897 151.376497 
L 98.743668 171.287193 
L 99.014439 145.157201 
L 99.555981 171.95834 
L 99.826753 139.788025 
L 100.097524 150.794836 
L 100.368295 171.555652 
L 100.639066 160.772556 
L 100.909837 175.850993 
L 101.180608 174.911387 
L 101.451379 169.631697 
L 101.72215 161.980621 
L 101.992921 173.748066 
L 102.263692 164.352007 
L 102.534464 148.378707 
L 102.805235 161.175244 
L 103.076006 165.202127 
L 103.346777 172.942689 
L 103.617548 174.911387 
L 104.15909 142.830558 
L 104.429861 139.788025 
L 104.700632 147.439101 
L 104.971403 137.14818 
L 105.242175 131.823746 
L 105.512946 149.542029 
L 105.783717 143.456962 
L 106.054488 132.718609 
L 106.325259 130.481452 
L 106.59603 142.517356 
L 106.866801 137.774584 
L 107.408343 155.448123 
L 107.679114 150.929066 
L 107.949886 172.361028 
L 108.220657 149.542029 
L 108.491428 155.045434 
L 109.03297 125.872909 
L 109.303741 136.342803 
L 109.845283 167.484027 
L 110.116054 172.987432 
L 110.386825 157.864252 
L 110.657596 165.515329 
L 110.928368 160.68307 
L 111.46991 132.45015 
L 111.740681 139.116878 
L 112.011452 160.727813 
L 112.282223 160.906785 
L 112.552994 159.206546 
L 112.823765 131.063113 
L 113.365307 155.448123 
L 113.636079 137.371895 
L 113.90685 163.904576 
L 114.177621 169.586954 
L 114.448392 157.908995 
L 114.719163 138.803676 
L 114.989934 157.640536 
L 115.260705 152.495076 
L 115.531476 143.99388 
L 115.802247 150.526378 
L 116.073018 147.70756 
L 116.34379 179.251472 
L 116.885332 137.640354 
L 117.156103 153.076736 
L 117.426874 125.872909 
L 117.697645 150.213176 
L 117.968416 151.510727 
L 118.509958 146.320523 
L 118.780729 144.486054 
L 119.0515 139.116878 
L 119.322272 141.622493 
L 119.593043 136.477033 
L 119.863814 142.920044 
L 120.134585 142.42787 
L 120.405356 151.152782 
L 120.676127 163.994062 
L 120.946898 158.624885 
L 121.217669 163.457144 
L 121.48844 134.86628 
L 121.759211 137.058693 
L 122.029983 143.725421 
L 122.300754 154.016342 
L 122.571525 146.231037 
L 122.842296 157.998482 
L 123.113067 145.649376 
L 123.383838 149.049854 
L 123.654609 149.899974 
L 123.92538 143.412219 
L 124.196151 153.83737 
L 124.466922 158.535399 
L 124.737694 158.222197 
L 125.008465 146.052064 
L 125.279236 149.676258 
L 125.550007 159.653978 
L 125.820778 163.188685 
L 126.091549 150.884323 
L 126.36232 161.935878 
L 126.633091 149.318313 
L 126.903862 150.929066 
L 127.174633 151.779185 
L 127.716176 126.812515 
L 128.528489 164.083548 
L 128.79926 160.638327 
L 129.070031 154.821719 
L 129.340802 144.978229 
L 129.611573 139.609052 
L 129.882344 163.770346 
L 130.153115 152.450333 
L 130.423887 151.018552 
L 130.694658 152.584562 
L 130.965429 147.70756 
L 131.2362 146.812697 
L 131.506971 158.848601 
L 131.777742 165.24687 
L 132.048513 161.667419 
L 132.319284 160.638327 
L 132.590055 170.52656 
L 132.860826 156.566701 
L 133.131598 153.926856 
L 133.402369 142.606842 
L 133.943911 161.712162 
L 134.214682 144.754513 
L 134.485453 149.094597 
L 134.756224 156.387729 
L 135.026995 157.372078 
L 135.297766 150.436891 
L 135.568537 155.940297 
L 135.839309 154.463774 
L 136.11008 143.188503 
L 136.380851 156.879903 
L 136.651622 164.888925 
L 136.922393 154.821719 
L 137.193164 170.929248 
L 137.463935 161.309474 
L 137.734706 146.186293 
L 138.005477 144.70977 
L 138.276248 146.231037 
L 138.817791 175.09036 
L 139.088562 144.351825 
L 139.359333 145.962578 
L 139.630104 153.926856 
L 139.900875 148.333964 
L 140.442417 124.083184 
L 140.713188 152.137131 
L 140.983959 143.099017 
L 141.25473 151.018552 
L 141.525502 168.468376 
L 141.796273 146.454752 
L 142.067044 166.67865 
L 142.337815 154.687489 
L 142.608586 159.83295 
L 142.879357 144.57554 
L 143.150128 157.461564 
L 143.420899 133.702958 
L 143.69167 168.020944 
L 143.962441 132.629123 
L 144.233213 147.662817 
L 144.503984 149.810487 
L 144.774755 159.385519 
L 145.045526 139.251107 
L 145.316297 132.271178 
L 145.587068 170.660789 
L 146.399381 127.841607 
L 146.670152 144.888742 
L 146.940923 144.307082 
L 147.482466 169.050036 
L 147.753237 133.076554 
L 148.024008 170.616046 
L 148.294779 165.425842 
L 148.56555 146.052064 
L 148.836321 163.322915 
L 149.107092 148.602423 
L 149.377863 154.105829 
L 149.648634 155.582352 
L 150.190177 163.770346 
L 150.460948 159.11706 
L 150.731719 170.213358 
L 151.00249 144.843999 
L 151.273261 161.219987 
L 151.544032 164.620466 
L 151.814803 150.83958 
L 152.085574 162.204336 
L 152.356345 156.253499 
L 152.627117 143.456962 
L 152.897888 161.309474 
L 153.710201 141.040833 
L 154.251743 169.318495 
L 154.793285 133.926674 
L 155.064056 153.524168 
L 155.334828 148.915625 
L 155.605599 160.414611 
L 155.87637 148.333964 
L 156.147141 149.13934 
L 156.417912 147.841789 
L 156.688683 147.125899 
L 156.959454 171.108221 
L 157.230225 155.98504 
L 157.500996 165.067897 
L 157.771767 160.906785 
L 158.042538 151.689699 
L 158.31331 150.571121 
L 158.584081 146.544238 
L 158.854852 138.222015 
L 159.125623 134.15039 
L 159.396394 160.638327 
L 159.667165 146.902184 
L 159.937936 144.530797 
L 160.208707 161.533189 
L 160.479478 158.893344 
L 160.750249 167.976201 
L 161.021021 147.349615 
L 161.291792 173.569093 
L 161.562563 164.128291 
L 161.833334 148.602423 
L 162.104105 158.490656 
L 162.374876 177.103801 
L 162.645647 180.280564 
L 163.187189 177.37226 
L 163.45796 163.233429 
L 163.728732 139.698539 
L 163.999503 166.633907 
L 164.270274 166.231219 
L 164.811816 142.42787 
L 165.082587 153.12148 
L 165.353358 152.718791 
L 165.8949 137.729841 
L 166.436442 169.586954 
L 166.977985 153.031993 
L 167.248756 170.884505 
L 167.519527 154.195315 
L 167.790298 180.37005 
L 168.061069 150.392148 
L 168.33184 155.492866 
L 168.602611 168.557862 
L 168.873382 157.908995 
L 169.414925 151.689699 
L 169.956467 131.286829 
L 170.227238 166.275962 
L 170.498009 146.186293 
L 170.76878 161.443703 
L 171.310322 152.137131 
L 171.581093 160.727813 
L 171.851864 133.389756 
L 172.122636 166.365448 
L 172.393407 166.231219 
L 172.664178 165.604815 
L 172.934949 156.342985 
L 173.20572 158.222197 
L 173.476491 172.67423 
L 173.747262 149.184084 
L 174.018033 149.407799 
L 174.288804 161.622676 
L 174.559575 161.533189 
L 174.830347 154.732233 
L 175.101118 169.944899 
L 175.371889 151.689699 
L 175.64266 148.468193 
L 175.913431 152.942507 
L 176.184202 155.134921 
L 176.454973 166.186476 
L 176.725744 170.795019 
L 176.996515 150.83958 
L 177.267286 139.474823 
L 177.538057 138.848419 
L 177.808829 153.300452 
L 178.0796 152.002901 
L 178.350371 168.155174 
L 178.621142 171.24245 
L 178.891913 148.378707 
L 179.162684 151.779185 
L 179.433455 146.902184 
L 179.974997 166.007503 
L 180.245768 166.544421 
L 180.51654 157.908995 
L 180.787311 173.300634 
L 181.058082 141.040833 
L 181.328853 143.412219 
L 181.599624 157.506307 
L 181.870395 186.052428 
L 182.141166 154.732233 
L 182.411937 154.374287 
L 182.682708 146.007321 
L 182.953479 152.137131 
L 183.224251 153.300452 
L 183.495022 149.184084 
L 183.765793 148.647166 
L 184.036564 153.434682 
L 184.307335 137.86407 
L 184.578106 147.797046 
L 184.848877 148.065505 
L 185.119648 157.058876 
L 185.390419 153.658397 
L 185.931961 179.206728 
L 186.202733 157.506307 
L 186.473504 151.42124 
L 186.744275 134.911023 
L 187.015046 162.159593 
L 187.285817 171.645138 
L 187.827359 161.935878 
L 188.09813 170.973991 
L 188.368901 160.459354 
L 188.639672 157.416821 
L 188.910444 152.584562 
L 189.181215 150.481635 
L 189.451986 146.365266 
L 189.722757 152.047644 
L 189.993528 153.434682 
L 190.264299 129.273388 
L 190.53507 145.873091 
L 190.805841 146.946927 
L 191.347383 158.222197 
L 191.618155 179.922619 
L 191.888926 159.83295 
L 192.159697 170.52656 
L 192.430468 141.398778 
L 192.701239 156.745674 
L 192.97201 137.416639 
L 193.242781 159.027574 
L 193.513552 157.595793 
L 193.784323 149.363056 
L 194.055094 145.828348 
L 194.325865 157.237848 
L 194.596637 152.808278 
L 194.867408 146.454752 
L 195.138179 172.405772 
L 195.40895 149.721001 
L 195.950492 154.732233 
L 196.221263 158.714372 
L 196.492034 159.161803 
L 196.762805 130.660425 
L 197.033576 147.125899 
L 197.304348 137.640354 
L 197.84589 161.712162 
L 198.116661 153.166223 
L 198.387432 155.671838 
L 198.658203 154.911205 
L 198.928974 156.477215 
L 199.199745 139.340593 
L 199.470516 150.929066 
L 199.741287 143.814907 
L 200.012059 148.199735 
L 200.28283 168.155174 
L 200.553601 158.938087 
L 200.824372 162.159593 
L 201.095143 141.085576 
L 201.365914 148.781395 
L 201.636685 160.504097 
L 201.907456 140.548658 
L 202.448998 132.45015 
L 202.71977 152.629305 
L 202.990541 149.721001 
L 203.261312 156.83516 
L 203.532083 151.018552 
L 203.802854 170.123872 
L 204.073625 148.333964 
L 204.344396 155.98504 
L 204.615167 154.105829 
L 204.885938 157.908995 
L 205.156709 157.595793 
L 205.42748 148.781395 
L 205.698252 157.640536 
L 205.969023 148.065505 
L 206.239794 155.627095 
L 206.510565 153.882113 
L 206.781336 155.26915 
L 207.052107 144.396568 
L 207.322878 170.079128 
L 207.593649 169.67644 
L 207.86442 158.356427 
L 208.135191 162.472795 
L 208.405963 149.228827 
L 208.676734 141.622493 
L 208.947505 166.052246 
L 209.759818 133.702958 
L 210.030589 158.714372 
L 210.30136 154.866462 
L 210.572131 184.128473 
L 210.842902 164.575723 
L 211.384445 154.866462 
L 211.655216 145.157201 
L 211.925987 144.083366 
L 212.196758 157.103619 
L 212.467529 146.410009 
L 212.7383 150.302662 
L 213.009071 147.215386 
L 213.279842 146.633725 
L 213.550613 133.345013 
L 213.821384 149.005111 
L 214.092156 126.186111 
L 214.362927 132.629123 
L 214.633698 117.505943 
L 214.904469 142.159411 
L 215.17524 119.832586 
L 215.446011 118.89298 
L 215.716782 148.915625 
L 215.987553 133.345013 
L 216.258324 132.002719 
L 216.529095 139.743282 
L 216.799867 155.000691 
L 217.070638 134.642564 
L 217.341409 138.669446 
L 217.61218 132.002719 
L 217.882951 145.873091 
L 218.153722 127.259946 
L 218.424493 143.546448 
L 218.695264 144.262338 
L 218.966035 136.029601 
L 219.236806 144.262338 
L 219.507578 131.01837 
L 219.778349 151.197525 
L 220.04912 145.917835 
L 220.319891 135.850629 
L 220.590662 141.219805 
L 220.861433 137.86407 
L 221.132204 145.559889 
L 221.673746 135.671656 
L 221.944517 142.42787 
L 222.215288 140.99609 
L 222.48606 134.060903 
L 222.756831 148.960368 
L 223.027602 131.063113 
L 223.298373 133.613472 
L 223.569144 124.575358 
L 223.839915 142.562099 
L 224.110686 128.646984 
L 224.381457 126.007139 
L 224.652228 136.834978 
L 224.922999 162.696511 
L 225.193771 156.298242 
L 225.464542 143.099017 
L 225.735313 139.877511 
L 226.006084 134.911023 
L 226.276855 142.069925 
L 226.547626 160.817299 
L 226.818397 126.678286 
L 227.089168 138.71419 
L 227.359939 126.051882 
L 227.63071 133.031811 
L 227.901482 144.396568 
L 228.172253 136.700748 
L 228.443024 134.687307 
L 228.713795 122.785633 
L 228.984566 130.839397 
L 229.255337 129.318131 
L 229.526108 154.195315 
L 230.06765 137.058693 
L 230.338421 133.881931 
L 230.609193 141.71198 
L 230.879964 156.521958 
L 231.150735 140.906603 
L 231.421506 149.765744 
L 231.692277 133.479243 
L 231.963048 136.387546 
L 232.233819 134.508335 
L 232.50459 134.195133 
L 232.775361 141.488264 
L 233.046132 134.463592 
L 233.316903 138.132529 
L 233.587675 158.893344 
L 233.858446 141.219805 
L 234.129217 133.881931 
L 234.399988 132.852839 
L 234.670759 150.929066 
L 234.94153 146.633725 
L 235.212301 138.535217 
L 235.483072 160.325125 
L 235.753843 140.01174 
L 236.024614 142.248897 
L 236.295386 127.259946 
L 236.836928 137.685097 
L 237.107699 125.380735 
L 237.37847 146.99167 
L 237.649241 124.709588 
L 237.920012 143.814907 
L 238.190783 134.955766 
L 238.461554 135.761142 
L 238.732325 143.85965 
L 239.003097 125.917652 
L 239.273868 143.904393 
L 239.544639 150.123689 
L 239.81541 132.092205 
L 240.086181 131.286829 
L 240.356952 149.631515 
L 240.627723 145.42566 
L 240.898494 131.555288 
L 241.169265 157.014133 
L 241.710807 122.472431 
L 241.981579 145.291431 
L 242.523121 134.105646 
L 242.793892 119.698356 
L 243.064663 135.716399 
L 243.335434 127.215203 
L 243.606205 140.14597 
L 243.876976 131.01837 
L 244.147747 144.888742 
L 244.418518 145.559889 
L 244.68929 128.289039 
L 245.230832 132.181692 
L 245.501603 117.461199 
L 245.772374 145.380917 
L 246.043145 136.163831 
L 246.313916 141.801466 
L 246.584687 141.398778 
L 246.855458 147.439101 
L 247.126229 128.02058 
L 247.397001 129.004929 
L 247.667772 116.297878 
L 247.938543 157.237848 
L 248.209314 120.011558 
L 248.480085 151.465984 
L 248.750856 125.693937 
L 249.021627 146.096807 
L 249.292398 132.763352 
L 249.563169 127.259946 
L 249.83394 140.056484 
L 250.104712 126.723029 
L 250.646254 138.71419 
L 250.917025 132.271178 
L 251.187796 136.477033 
L 251.458567 154.508517 
L 251.729338 125.73868 
L 252.000109 129.989278 
L 252.27088 129.631333 
L 252.541651 145.783605 
L 252.812422 142.472613 
L 253.083194 123.635752 
L 253.353965 129.855048 
L 253.624736 150.347405 
L 253.895507 133.031811 
L 254.166278 139.474823 
L 254.437049 126.409827 
L 254.70782 141.443521 
L 254.978591 122.919862 
L 255.249362 129.45236 
L 255.520133 145.873091 
L 256.061676 121.532825 
L 256.332447 135.492684 
L 256.603218 124.351643 
L 256.873989 137.908813 
L 257.14476 142.606842 
L 257.415531 121.980256 
L 257.957073 136.700748 
L 258.227844 131.600031 
L 258.498616 146.365266 
L 258.769387 130.257737 
L 259.040158 133.076554 
L 259.310929 140.324942 
L 259.5817 127.796864 
L 259.852471 145.380917 
L 260.123242 146.096807 
L 260.394013 144.843999 
L 260.664784 137.86407 
L 260.935555 137.819327 
L 261.206326 143.546448 
L 261.477098 133.702958 
L 261.747869 138.043042 
L 262.01864 115.000327 
L 262.289411 139.161621 
L 262.560182 132.271178 
L 262.830953 143.054274 
L 263.101724 147.797046 
L 263.372495 139.743282 
L 263.643266 135.58217 
L 263.914037 160.235638 
L 264.184809 158.132711 
L 264.45558 138.356244 
L 264.726351 155.761325 
L 264.997122 128.646984 
L 265.538664 147.304872 
L 265.809435 138.893162 
L 266.080206 136.700748 
L 266.350977 144.038623 
L 266.621748 136.253317 
L 266.89252 137.058693 
L 267.163291 143.725421 
L 267.434062 155.806068 
L 267.704833 146.678468 
L 267.975604 121.89077 
L 268.246375 148.42345 
L 268.517146 130.078764 
L 268.787917 169.586954 
L 269.058688 142.651586 
L 269.329459 131.555288 
L 269.60023 146.454752 
L 269.871002 143.456962 
L 270.141773 153.031993 
L 270.412544 146.723211 
L 270.683315 145.022972 
L 271.224857 124.038441 
L 271.495628 139.519566 
L 271.766399 138.982648 
L 272.03717 173.121662 
L 272.307941 146.231037 
L 272.578713 139.116878 
L 272.849484 128.468011 
L 273.120255 143.546448 
L 273.391026 152.047644 
L 273.661797 135.224225 
L 273.932568 155.761325 
L 274.203339 119.027209 
L 274.744881 146.767954 
L 275.015652 148.244478 
L 275.286424 151.779185 
L 275.557195 130.16825 
L 275.827966 126.723029 
L 276.098737 153.031993 
L 276.369508 139.788025 
L 276.91105 134.105646 
L 277.181821 147.439101 
L 277.452592 149.407799 
L 277.723363 139.29585 
L 277.994135 143.233246 
L 278.264906 130.928884 
L 278.806448 150.571121 
L 279.077219 142.964788 
L 279.34799 143.188503 
L 279.618761 150.70535 
L 279.889532 144.620284 
L 280.160303 163.68086 
L 280.431074 136.119088 
L 280.972617 159.743464 
L 281.243388 157.730023 
L 281.514159 150.347405 
L 281.78493 150.392148 
L 282.055701 171.24245 
L 282.326472 144.396568 
L 282.597243 130.257737 
L 282.868014 143.14376 
L 283.138785 139.251107 
L 283.409556 149.318313 
L 283.680328 136.611262 
L 283.951099 132.897582 
L 284.22187 136.29806 
L 284.492641 144.843999 
L 285.034183 128.02058 
L 285.304954 133.345013 
L 285.575725 147.841789 
L 285.846496 137.01395 
L 286.117267 148.333964 
L 286.388039 142.741072 
L 286.65881 150.302662 
L 286.929581 149.542029 
L 287.200352 141.890952 
L 287.471123 156.432472 
L 287.741894 149.13934 
L 288.012665 126.767772 
L 288.283436 139.340593 
L 288.554207 134.73205 
L 288.824978 148.110248 
L 289.366521 143.412219 
L 289.908063 164.39675 
L 290.449605 133.702958 
L 290.720376 146.454752 
L 290.991147 141.085576 
L 291.261918 147.260129 
L 291.532689 136.790235 
L 291.80346 136.566519 
L 292.074232 153.389938 
L 292.345003 147.125899 
L 292.615774 131.107856 
L 292.886545 136.29806 
L 293.157316 126.946745 
L 293.428087 142.741072 
L 293.969629 133.121297 
L 294.2404 134.73205 
L 294.781943 158.803858 
L 295.052714 153.031993 
L 295.323485 136.924464 
L 295.594256 162.607025 
L 295.865027 135.984858 
L 296.135798 149.676258 
L 296.406569 116.432107 
L 296.67734 146.723211 
L 297.218882 163.233429 
L 297.760425 135.447941 
L 298.031196 150.302662 
L 298.301967 121.264366 
L 298.572738 132.673866 
L 298.843509 149.452542 
L 299.11428 157.55105 
L 299.385051 145.470403 
L 299.655822 158.938087 
L 299.926593 135.940115 
L 300.197364 141.219805 
L 300.468136 153.658397 
L 300.738907 135.895372 
L 301.009678 153.70314 
L 301.280449 144.57554 
L 301.55122 170.123872 
L 301.821991 136.029601 
L 302.092762 130.481452 
L 302.363533 142.248897 
L 302.634304 132.897582 
L 302.905075 156.208756 
L 303.175847 162.428052 
L 303.446618 146.946927 
L 303.717389 150.078946 
L 303.98816 137.327152 
L 304.258931 134.597821 
L 304.529702 121.219623 
L 304.800473 159.027574 
L 305.071244 154.642746 
L 305.342015 143.099017 
L 305.612786 154.105829 
L 305.883558 147.886533 
L 306.154329 159.922436 
L 306.4251 143.85965 
L 306.695871 151.287011 
L 306.966642 141.354035 
L 307.237413 150.884323 
L 307.508184 136.208574 
L 307.778955 145.336174 
L 308.049726 166.320705 
L 308.320497 173.882295 
L 308.591268 136.521776 
L 308.86204 167.976201 
L 309.132811 154.329544 
L 309.403582 149.318313 
L 309.674353 153.166223 
L 309.945124 143.367476 
L 310.215895 146.231037 
L 310.486666 160.727813 
L 311.028208 141.846209 
L 311.298979 171.510909 
L 311.569751 147.886533 
L 311.840522 159.296032 
L 312.111293 158.445913 
L 312.382064 147.662817 
L 312.652835 161.264731 
L 312.923606 149.049854 
L 313.735919 167.349797 
L 314.277462 146.096807 
L 314.819004 161.354217 
L 315.089775 148.289221 
L 315.360546 147.036413 
L 315.631317 159.340776 
L 315.902088 190.34777 
L 316.172859 163.994062 
L 316.44363 162.651768 
L 316.714401 166.499678 
L 316.985172 150.123689 
L 317.255944 162.920227 
L 317.526715 138.266758 
L 317.797486 149.363056 
L 318.068257 147.394358 
L 318.339028 166.096989 
L 318.609799 155.045434 
L 318.88057 153.166223 
L 319.151341 144.441311 
L 319.422112 150.794836 
L 319.692883 165.515329 
L 319.963655 162.607025 
L 320.234426 137.416639 
L 320.505197 142.338384 
L 320.775968 142.29364 
L 321.046739 151.287011 
L 321.31751 143.009531 
L 321.859052 168.378889 
L 322.129823 158.132711 
L 322.400594 132.897582 
L 322.671366 150.750093 
L 322.942137 153.076736 
L 323.212908 150.615864 
L 323.483679 152.092387 
L 323.75445 148.199735 
L 324.025221 149.98946 
L 324.295992 153.70314 
L 324.566763 160.638327 
L 324.837534 164.262521 
L 325.108305 154.150572 
L 325.379077 152.942507 
L 325.649848 149.855231 
L 325.920619 153.83737 
L 326.19139 169.81067 
L 327.003703 149.98946 
L 327.274474 162.383309 
L 327.545245 144.262338 
L 327.816016 155.537609 
L 328.086787 160.727813 
L 328.357559 149.005111 
L 328.62833 145.962578 
L 328.899101 169.363238 
L 329.169872 157.68528 
L 329.440643 159.698721 
L 329.711414 135.805886 
L 329.982185 143.725421 
L 330.252956 142.875301 
L 330.523727 153.926856 
L 330.794498 144.978229 
L 331.06527 159.251289 
L 331.336041 162.920227 
L 331.606812 153.434682 
L 331.877583 149.855231 
L 332.148354 150.750093 
L 332.419125 140.190713 
L 332.689896 145.962578 
L 332.960667 140.593401 
L 333.231438 148.736652 
L 333.502209 164.352007 
L 333.772981 164.53098 
L 334.043752 147.886533 
L 334.314523 188.64753 
L 334.585294 141.130319 
L 335.126836 167.170825 
L 335.397607 129.765562 
L 335.668378 155.582352 
L 335.939149 158.043225 
L 336.20992 143.591191 
L 336.480691 143.099017 
L 336.751463 173.792809 
L 337.022234 152.718791 
L 337.293005 121.085394 
L 337.834547 167.886715 
L 338.105318 143.054274 
L 338.376089 155.000691 
L 338.64686 143.501705 
L 338.917631 166.365448 
L 339.188402 133.971417 
L 339.459174 157.372078 
L 339.729945 144.888742 
L 340.000716 147.215386 
L 340.271487 158.132711 
L 340.542258 145.649376 
L 341.0838 150.571121 
L 341.625342 136.656005 
L 341.896113 139.29585 
L 342.166885 137.86407 
L 342.437656 159.83295 
L 342.708427 142.472613 
L 342.979198 155.045434 
L 343.249969 160.369868 
L 343.52074 146.096807 
L 343.791511 162.472795 
L 344.062282 159.743464 
L 344.333053 146.27578 
L 344.603824 159.340776 
L 345.145367 139.922254 
L 345.416138 135.761142 
L 345.686909 155.895554 
L 345.95768 161.085758 
L 346.228451 151.689699 
L 346.499222 153.210966 
L 346.769993 148.647166 
L 347.040764 153.031993 
L 347.311535 159.788207 
L 347.582306 152.584562 
L 347.853078 160.056666 
L 348.123849 149.631515 
L 348.39462 162.96497 
L 348.936162 150.213176 
L 349.206933 162.070107 
L 349.477704 165.604815 
L 349.748475 165.202127 
L 350.019246 151.600213 
L 350.290017 145.42566 
L 350.560789 156.83516 
L 350.83156 151.55547 
L 351.102331 156.164013 
L 351.373102 143.725421 
L 351.643873 183.636299 
L 351.914644 149.944717 
L 352.185415 158.624885 
L 352.456186 135.940115 
L 352.726957 149.810487 
L 352.997728 153.658397 
L 353.2685 130.526195 
L 353.539271 156.969389 
L 353.810042 142.741072 
L 354.080813 152.27136 
L 354.351584 173.479607 
L 354.893126 137.14818 
L 355.163897 158.132711 
L 355.434668 151.108038 
L 355.705439 155.000691 
L 355.97621 162.83074 
L 356.246982 150.973809 
L 356.788524 166.857623 
L 357.059295 155.582352 
L 357.330066 166.857623 
L 357.600837 145.559889 
L 357.871608 164.352007 
L 358.142379 150.481635 
L 358.41315 147.618074 
L 358.683921 151.600213 
L 358.954693 151.868672 
L 359.225464 147.528587 
L 359.767006 161.935878 
L 360.037777 160.68307 
L 360.308548 163.815089 
L 360.579319 177.774948 
L 360.85009 142.920044 
L 361.120861 176.298425 
L 361.391632 159.922436 
L 361.662404 128.870699 
L 361.933175 157.282591 
L 362.203946 144.888742 
L 362.474717 166.947109 
L 363.016259 146.85744 
L 363.28703 157.416821 
L 363.557801 137.729841 
L 363.828572 137.282409 
L 364.099343 139.251107 
L 364.370114 158.356427 
L 364.640886 139.116878 
L 364.911657 153.166223 
L 365.182428 156.298242 
L 365.453199 153.83737 
L 365.72397 161.39896 
L 365.994741 150.750093 
L 366.265512 167.39454 
L 366.536283 153.434682 
L 367.077825 144.128109 
L 367.619368 159.922436 
L 367.890139 160.325125 
L 368.16091 131.510544 
L 368.431681 139.43008 
L 368.973223 133.971417 
L 369.243994 138.266758 
L 370.056308 164.620466 
L 370.327079 148.870882 
L 370.59785 176.969572 
L 370.868621 153.166223 
L 371.139392 167.305054 
L 371.680934 147.797046 
L 371.951705 167.931458 
L 372.222476 141.488264 
L 372.493247 162.428052 
L 372.764019 148.691909 
L 373.03479 171.913597 
L 373.305561 158.043225 
L 373.576332 161.935878 
L 373.847103 141.980439 
L 374.117874 141.756723 
L 374.388645 158.803858 
L 374.659416 128.691727 
L 375.200958 159.385519 
L 375.471729 149.676258 
L 375.742501 155.582352 
L 376.013272 166.410191 
L 376.284043 155.448123 
L 376.554814 154.150572 
L 376.825585 144.486054 
L 377.096356 152.853021 
L 377.367127 138.803676 
L 377.637898 154.687489 
L 377.908669 158.848601 
L 378.17944 149.676258 
L 378.450212 162.025364 
L 378.720983 163.188685 
L 378.991754 150.481635 
L 379.262525 151.689699 
L 379.533296 145.649376 
L 379.804067 143.546448 
L 380.074838 149.631515 
L 380.61638 143.009531 
L 380.887151 148.42345 
L 381.157923 160.056666 
L 381.428694 136.924464 
L 382.241007 161.354217 
L 382.511778 168.155174 
L 382.782549 172.137313 
L 383.324091 142.383127 
L 383.594862 171.734625 
L 383.865633 137.86407 
L 384.136405 155.313893 
L 384.407176 182.070289 
L 384.677947 174.463956 
L 384.948718 157.774766 
L 385.219489 186.589346 
L 385.49026 148.020762 
L 385.761031 152.674048 
L 386.031802 151.644956 
L 386.302573 162.696511 
L 386.573344 136.477033 
L 386.844116 150.347405 
L 387.114887 131.779003 
L 387.385658 150.168433 
L 387.656429 180.459536 
L 387.9272 173.166405 
L 388.197971 152.98725 
L 388.468742 149.407799 
L 389.010284 137.192923 
L 389.281055 157.148362 
L 389.551827 137.908813 
L 389.822598 159.475005 
L 390.093369 166.768136 
L 390.36414 142.830558 
L 390.634911 152.942507 
L 390.905682 137.550868 
L 391.176453 143.635935 
L 391.447224 145.828348 
L 391.717995 154.642746 
L 391.988766 149.586772 
L 392.259537 165.604815 
L 392.530309 150.481635 
L 392.80108 149.765744 
L 393.071851 145.962578 
L 393.342622 136.656005 
L 393.613393 156.566701 
L 393.884164 139.519566 
L 394.154935 134.821537 
L 394.425706 150.347405 
L 394.696477 142.42787 
L 394.967248 146.410009 
L 395.23802 138.848419 
L 395.779562 153.166223 
L 396.050333 152.137131 
L 396.321104 157.506307 
L 396.591875 133.568729 
L 396.862646 148.602423 
L 397.133417 141.667237 
L 397.404188 154.598003 
L 397.674959 141.801466 
L 397.945731 143.456962 
L 398.216502 166.410191 
L 398.487273 149.005111 
L 398.487273 149.005111 
" style="fill:none;stroke:#0000ff;stroke-linecap:square;stroke-width:1.5;"/>
   </g>
   <g id="line2d_28">
    <path clip-path="url(#p8616396ac9)" d="M 73.832727 165.425842 
L 80.331234 165.425842 
L 80.602005 149.765744 
L 80.872776 145.291431 
L 81.143547 136.342803 
L 81.414318 134.105646 
L 82.768173 134.105646 
L 83.038945 131.86849 
L 83.309716 127.394176 
L 84.122029 127.394176 
L 84.3928 120.682705 
L 84.663571 118.445549 
L 84.934342 93.836823 
L 85.205113 89.36251 
L 85.475884 89.36251 
L 85.746656 87.125353 
L 86.017427 87.125353 
L 86.288198 82.651039 
L 86.82974 82.651039 
L 87.100511 80.413882 
L 96.577499 80.413882 
L 96.848271 78.176725 
L 97.119042 78.176725 
L 97.389813 75.939568 
L 97.931355 75.939568 
L 98.202126 71.465255 
L 211.655216 71.465255 
L 211.925987 69.228098 
L 212.7383 69.228098 
L 213.009071 62.516627 
L 248.480085 62.516627 
L 248.750856 60.279471 
L 253.083194 60.279471 
L 253.353965 53.568 
L 398.487273 53.568 
L 398.487273 53.568 
" style="fill:none;stroke:#ff0000;stroke-linecap:square;stroke-width:1.5;"/>
   </g>
   <g id="patch_3">
    <path d="M 57.6 307.584 
L 57.6 41.472 
" style="fill:none;stroke:#000000;stroke-linecap:square;stroke-linejoin:miter;stroke-width:0.8;"/>
   </g>
   <g id="patch_4">
    <path d="M 414.72 307.584 
L 414.72 41.472 
" style="fill:none;stroke:#000000;stroke-linecap:square;stroke-linejoin:miter;stroke-width:0.8;"/>
   </g>
   <g id="patch_5">
    <path d="M 57.6 307.584 
L 414.72 307.584 
" style="fill:none;stroke:#000000;stroke-linecap:square;stroke-linejoin:miter;stroke-width:0.8;"/>
   </g>
   <g id="patch_6">
    <path d="M 57.6 41.472 
L 414.72 41.472 
" style="fill:none;stroke:#000000;stroke-linecap:square;stroke-linejoin:miter;stroke-width:0.8;"/>
   </g>
   <g id="text_16">
    <!-- Population's average and best fitness -->
    <defs>
     <path d="M 19.671875 64.796875 
L 19.671875 37.40625 
L 32.078125 37.40625 
Q 38.96875 37.40625 42.71875 40.96875 
Q 46.484375 44.53125 46.484375 51.125 
Q 46.484375 57.671875 42.71875 61.234375 
Q 38.96875 64.796875 32.078125 64.796875 
z
M 9.8125 72.90625 
L 32.078125 72.90625 
Q 44.34375 72.90625 50.609375 67.359375 
Q 56.890625 61.8125 56.890625 51.125 
Q 56.890625 40.328125 50.609375 34.8125 
Q 44.34375 29.296875 32.078125 29.296875 
L 19.671875 29.296875 
L 19.671875 0 
L 9.8125 0 
z
" id="DejaVuSans-80"/>
     <path d="M 18.109375 8.203125 
L 18.109375 -20.796875 
L 9.078125 -20.796875 
L 9.078125 54.6875 
L 18.109375 54.6875 
L 18.109375 46.390625 
Q 20.953125 51.265625 25.265625 53.625 
Q 29.59375 56 35.59375 56 
Q 45.5625 56 51.78125 48.09375 
Q 58.015625 40.1875 58.015625 27.296875 
Q 58.015625 14.40625 51.78125 6.484375 
Q 45.5625 -1.421875 35.59375 -1.421875 
Q 29.59375 -1.421875 25.265625 0.953125 
Q 20.953125 3.328125 18.109375 8.203125 
z
M 48.6875 27.296875 
Q 48.6875 37.203125 44.609375 42.84375 
Q 40.53125 48.484375 33.40625 48.484375 
Q 26.265625 48.484375 22.1875 42.84375 
Q 18.109375 37.203125 18.109375 27.296875 
Q 18.109375 17.390625 22.1875 11.75 
Q 26.265625 6.109375 33.40625 6.109375 
Q 40.53125 6.109375 44.609375 11.75 
Q 48.6875 17.390625 48.6875 27.296875 
z
" id="DejaVuSans-112"/>
     <path d="M 8.5 21.578125 
L 8.5 54.6875 
L 17.484375 54.6875 
L 17.484375 21.921875 
Q 17.484375 14.15625 20.5 10.265625 
Q 23.53125 6.390625 29.59375 6.390625 
Q 36.859375 6.390625 41.078125 11.03125 
Q 45.3125 15.671875 45.3125 23.6875 
L 45.3125 54.6875 
L 54.296875 54.6875 
L 54.296875 0 
L 45.3125 0 
L 45.3125 8.40625 
Q 42.046875 3.421875 37.71875 1 
Q 33.40625 -1.421875 27.6875 -1.421875 
Q 18.265625 -1.421875 13.375 4.4375 
Q 8.5 10.296875 8.5 21.578125 
z
M 31.109375 56 
z
" id="DejaVuSans-117"/>
     <path d="M 9.421875 75.984375 
L 18.40625 75.984375 
L 18.40625 0 
L 9.421875 0 
z
" id="DejaVuSans-108"/>
     <path d="M 17.921875 72.90625 
L 17.921875 45.796875 
L 9.625 45.796875 
L 9.625 72.90625 
z
" id="DejaVuSans-39"/>
     <path id="DejaVuSans-32"/>
     <path d="M 2.984375 54.6875 
L 12.5 54.6875 
L 29.59375 8.796875 
L 46.6875 54.6875 
L 56.203125 54.6875 
L 35.6875 0 
L 23.484375 0 
z
" id="DejaVuSans-118"/>
     <path d="M 45.40625 27.984375 
Q 45.40625 37.75 41.375 43.109375 
Q 37.359375 48.484375 30.078125 48.484375 
Q 22.859375 48.484375 18.828125 43.109375 
Q 14.796875 37.75 14.796875 27.984375 
Q 14.796875 18.265625 18.828125 12.890625 
Q 22.859375 7.515625 30.078125 7.515625 
Q 37.359375 7.515625 41.375 12.890625 
Q 45.40625 18.265625 45.40625 27.984375 
z
M 54.390625 6.78125 
Q 54.390625 -7.171875 48.1875 -13.984375 
Q 42 -20.796875 29.203125 -20.796875 
Q 24.46875 -20.796875 20.265625 -20.09375 
Q 16.0625 -19.390625 12.109375 -17.921875 
L 12.109375 -9.1875 
Q 16.0625 -11.328125 19.921875 -12.34375 
Q 23.78125 -13.375 27.78125 -13.375 
Q 36.625 -13.375 41.015625 -8.765625 
Q 45.40625 -4.15625 45.40625 5.171875 
L 45.40625 9.625 
Q 42.625 4.78125 38.28125 2.390625 
Q 33.9375 0 27.875 0 
Q 17.828125 0 11.671875 7.65625 
Q 5.515625 15.328125 5.515625 27.984375 
Q 5.515625 40.671875 11.671875 48.328125 
Q 17.828125 56 27.875 56 
Q 33.9375 56 38.28125 53.609375 
Q 42.625 51.21875 45.40625 46.390625 
L 45.40625 54.6875 
L 54.390625 54.6875 
z
" id="DejaVuSans-103"/>
     <path d="M 45.40625 46.390625 
L 45.40625 75.984375 
L 54.390625 75.984375 
L 54.390625 0 
L 45.40625 0 
L 45.40625 8.203125 
Q 42.578125 3.328125 38.25 0.953125 
Q 33.9375 -1.421875 27.875 -1.421875 
Q 17.96875 -1.421875 11.734375 6.484375 
Q 5.515625 14.40625 5.515625 27.296875 
Q 5.515625 40.1875 11.734375 48.09375 
Q 17.96875 56 27.875 56 
Q 33.9375 56 38.25 53.625 
Q 42.578125 51.265625 45.40625 46.390625 
z
M 14.796875 27.296875 
Q 14.796875 17.390625 18.875 11.75 
Q 22.953125 6.109375 30.078125 6.109375 
Q 37.203125 6.109375 41.296875 11.75 
Q 45.40625 17.390625 45.40625 27.296875 
Q 45.40625 37.203125 41.296875 42.84375 
Q 37.203125 48.484375 30.078125 48.484375 
Q 22.953125 48.484375 18.875 42.84375 
Q 14.796875 37.203125 14.796875 27.296875 
z
" id="DejaVuSans-100"/>
     <path d="M 48.6875 27.296875 
Q 48.6875 37.203125 44.609375 42.84375 
Q 40.53125 48.484375 33.40625 48.484375 
Q 26.265625 48.484375 22.1875 42.84375 
Q 18.109375 37.203125 18.109375 27.296875 
Q 18.109375 17.390625 22.1875 11.75 
Q 26.265625 6.109375 33.40625 6.109375 
Q 40.53125 6.109375 44.609375 11.75 
Q 48.6875 17.390625 48.6875 27.296875 
z
M 18.109375 46.390625 
Q 20.953125 51.265625 25.265625 53.625 
Q 29.59375 56 35.59375 56 
Q 45.5625 56 51.78125 48.09375 
Q 58.015625 40.1875 58.015625 27.296875 
Q 58.015625 14.40625 51.78125 6.484375 
Q 45.5625 -1.421875 35.59375 -1.421875 
Q 29.59375 -1.421875 25.265625 0.953125 
Q 20.953125 3.328125 18.109375 8.203125 
L 18.109375 0 
L 9.078125 0 
L 9.078125 75.984375 
L 18.109375 75.984375 
z
" id="DejaVuSans-98"/>
     <path d="M 37.109375 75.984375 
L 37.109375 68.5 
L 28.515625 68.5 
Q 23.6875 68.5 21.796875 66.546875 
Q 19.921875 64.59375 19.921875 59.515625 
L 19.921875 54.6875 
L 34.71875 54.6875 
L 34.71875 47.703125 
L 19.921875 47.703125 
L 19.921875 0 
L 10.890625 0 
L 10.890625 47.703125 
L 2.296875 47.703125 
L 2.296875 54.6875 
L 10.890625 54.6875 
L 10.890625 58.5 
Q 10.890625 67.625 15.140625 71.796875 
Q 19.390625 75.984375 28.609375 75.984375 
z
" id="DejaVuSans-102"/>
    </defs>
    <g transform="translate(123.529687 35.472)scale(0.12 -0.12)">
     <use xlink:href="#DejaVuSans-80"/>
     <use x="56.677734" xlink:href="#DejaVuSans-111"/>
     <use x="117.859375" xlink:href="#DejaVuSans-112"/>
     <use x="181.335938" xlink:href="#DejaVuSans-117"/>
     <use x="244.714844" xlink:href="#DejaVuSans-108"/>
     <use x="272.498047" xlink:href="#DejaVuSans-97"/>
     <use x="333.777344" xlink:href="#DejaVuSans-116"/>
     <use x="372.986328" xlink:href="#DejaVuSans-105"/>
     <use x="400.769531" xlink:href="#DejaVuSans-111"/>
     <use x="461.951172" xlink:href="#DejaVuSans-110"/>
     <use x="525.330078" xlink:href="#DejaVuSans-39"/>
     <use x="552.820312" xlink:href="#DejaVuSans-115"/>
     <use x="604.919922" xlink:href="#DejaVuSans-32"/>
     <use x="636.707031" xlink:href="#DejaVuSans-97"/>
     <use x="697.986328" xlink:href="#DejaVuSans-118"/>
     <use x="757.166016" xlink:href="#DejaVuSans-101"/>
     <use x="818.689453" xlink:href="#DejaVuSans-114"/>
     <use x="859.802734" xlink:href="#DejaVuSans-97"/>
     <use x="921.082031" xlink:href="#DejaVuSans-103"/>
     <use x="984.558594" xlink:href="#DejaVuSans-101"/>
     <use x="1046.082031" xlink:href="#DejaVuSans-32"/>
     <use x="1077.869141" xlink:href="#DejaVuSans-97"/>
     <use x="1139.148438" xlink:href="#DejaVuSans-110"/>
     <use x="1202.527344" xlink:href="#DejaVuSans-100"/>
     <use x="1266.003906" xlink:href="#DejaVuSans-32"/>
     <use x="1297.791016" xlink:href="#DejaVuSans-98"/>
     <use x="1361.267578" xlink:href="#DejaVuSans-101"/>
     <use x="1422.791016" xlink:href="#DejaVuSans-115"/>
     <use x="1474.890625" xlink:href="#DejaVuSans-116"/>
     <use x="1514.099609" xlink:href="#DejaVuSans-32"/>
     <use x="1545.886719" xlink:href="#DejaVuSans-102"/>
     <use x="1581.091797" xlink:href="#DejaVuSans-105"/>
     <use x="1608.875" xlink:href="#DejaVuSans-116"/>
     <use x="1648.083984" xlink:href="#DejaVuSans-110"/>
     <use x="1711.462891" xlink:href="#DejaVuSans-101"/>
     <use x="1772.986328" xlink:href="#DejaVuSans-115"/>
     <use x="1825.085938" xlink:href="#DejaVuSans-115"/>
    </g>
   </g>
   <g id="legend_1">
    <g id="patch_7">
     <path d="M 334.779375 302.584 
L 407.72 302.584 
Q 409.72 302.584 409.72 300.584 
L 409.72 272.22775 
Q 409.72 270.22775 407.72 270.22775 
L 334.779375 270.22775 
Q 332.779375 270.22775 332.779375 272.22775 
L 332.779375 300.584 
Q 332.779375 302.584 334.779375 302.584 
z
" style="fill:#ffffff;opacity:0.8;stroke:#cccccc;stroke-linejoin:miter;"/>
    </g>
    <g id="line2d_29">
     <path d="M 336.779375 278.326187 
L 356.779375 278.326187 
" style="fill:none;stroke:#0000ff;stroke-linecap:square;stroke-width:1.5;"/>
    </g>
    <g id="line2d_30"/>
    <g id="text_17">
     <!-- average -->
     <g transform="translate(364.779375 281.826187)scale(0.1 -0.1)">
      <use xlink:href="#DejaVuSans-97"/>
      <use x="61.279297" xlink:href="#DejaVuSans-118"/>
      <use x="120.458984" xlink:href="#DejaVuSans-101"/>
      <use x="181.982422" xlink:href="#DejaVuSans-114"/>
      <use x="223.095703" xlink:href="#DejaVuSans-97"/>
      <use x="284.375" xlink:href="#DejaVuSans-103"/>
      <use x="347.851562" xlink:href="#DejaVuSans-101"/>
     </g>
    </g>
    <g id="line2d_31">
     <path d="M 336.779375 293.004312 
L 356.779375 293.004312 
" style="fill:none;stroke:#ff0000;stroke-linecap:square;stroke-width:1.5;"/>
    </g>
    <g id="line2d_32"/>
    <g id="text_18">
     <!-- best -->
     <g transform="translate(364.779375 296.504312)scale(0.1 -0.1)">
      <use xlink:href="#DejaVuSans-98"/>
      <use x="63.476562" xlink:href="#DejaVuSans-101"/>
      <use x="125" xlink:href="#DejaVuSans-115"/>
      <use x="177.099609" xlink:href="#DejaVuSans-116"/>
     </g>
    </g>
   </g>
  </g>
 </g>
 <defs>
  <clipPath id="p8616396ac9">
   <rect height="266.112" width="357.12" x="57.6" y="41.472"/>
  </clipPath>
 </defs>
</svg>
