<?xml version="1.0" encoding="UTF-8" standalone="no"?>
<!DOCTYPE svg PUBLIC "-//W3C//DTD SVG 1.1//EN"
 "http://www.w3.org/Graphics/SVG/1.1/DTD/svg11.dtd">
<!-- Generated by graphviz version 2.50.0 (0)
 -->
<!-- Pages: 1 -->
<svg width="509pt" height="142pt"
 viewBox="0.00 0.00 508.71 141.58" xmlns="http://www.w3.org/2000/svg" xmlns:xlink="http://www.w3.org/1999/xlink">
<g id="graph0" class="graph" transform="scale(1 1) rotate(0) translate(4 137.58)">
<polygon fill="white" stroke="transparent" points="-4,4 -4,-137.58 504.71,-137.58 504.71,4 -4,4"/>
<!-- age -->
<g id="node1" class="node">
<title>age</title>
<polygon fill="lightgray" stroke="black" points="29,-121.37 0,-121.37 0,-103.37 29,-103.37 29,-121.37"/>
<text text-anchor="middle" x="14.5" y="-110.17" font-family="Times New Roman,serif" font-size="9.00">age</text>
</g>
<!-- 97 -->
<g id="node11" class="node">
<title>97</title>
<ellipse fill="white" stroke="black" cx="158.5" cy="-27.58" rx="18.27" ry="18.27"/>
<text text-anchor="middle" x="158.5" y="-25.38" font-family="Times New Roman,serif" font-size="9.00">97</text>
</g>
<!-- age&#45;&gt;97 -->
<g id="edge1" class="edge">
<title>age&#45;&gt;97</title>
<path fill="none" stroke="green" stroke-width="0.23" d="M23.47,-103C27.83,-99.15 33.25,-94.67 38.5,-91.15 69.35,-70.49 107.83,-51.49 132.78,-39.98"/>
<polygon fill="green" stroke="green" stroke-width="0.23" points="134.3,-43.13 141.94,-35.8 131.39,-36.76 134.3,-43.13"/>
</g>
<!-- sex -->
<g id="node2" class="node">
<title>sex</title>
<polygon fill="lightgray" stroke="black" points="395,-121.37 366,-121.37 366,-103.37 395,-103.37 395,-121.37"/>
<text text-anchor="middle" x="380.5" y="-110.17" font-family="Times New Roman,serif" font-size="9.00">sex</text>
</g>
<!-- cp -->
<g id="node3" class="node">
<title>cp</title>
<polygon fill="lightgray" stroke="black" points="187,-121.37 162,-121.37 162,-103.37 187,-103.37 187,-121.37"/>
<text text-anchor="middle" x="174.5" y="-110.17" font-family="Times New Roman,serif" font-size="9.00">cp</text>
</g>
<!-- output -->
<g id="node10" class="node">
<title>output</title>
<ellipse fill="lightblue" stroke="black" cx="237.5" cy="-27.58" rx="27.65" ry="27.65"/>
<text text-anchor="middle" x="237.5" y="-25.38" font-family="Times New Roman,serif" font-size="9.00">output</text>
</g>
<!-- cp&#45;&gt;output -->
<g id="edge8" class="edge">
<title>cp&#45;&gt;output</title>
<path fill="none" stroke="green" stroke-width="0.79" d="M180.77,-103.13C188.72,-92.68 202.86,-74.1 215.04,-58.1"/>
<polygon fill="green" stroke="green" stroke-width="0.79" points="217.91,-60.1 221.18,-50.03 212.34,-55.86 217.91,-60.1"/>
</g>
<!-- cp&#45;&gt;97 -->
<g id="edge2" class="edge">
<title>cp&#45;&gt;97</title>
<path fill="none" stroke="red" stroke-width="0.56" stroke-dasharray="1,5" d="M172.91,-103.13C170.79,-92.19 166.96,-72.34 163.77,-55.87"/>
<polygon fill="red" stroke="red" stroke-width="0.56" points="167.14,-54.82 161.8,-45.67 160.26,-56.15 167.14,-54.82"/>
</g>
<!-- thalachh -->
<g id="node4" class="node">
<title>thalachh</title>
<polygon fill="lightgray" stroke="black" points="93.5,-121.37 47.5,-121.37 47.5,-103.37 93.5,-103.37 93.5,-121.37"/>
<text text-anchor="middle" x="70.5" y="-110.17" font-family="Times New Roman,serif" font-size="9.00">thalachh</text>
</g>
<!-- thalachh&#45;&gt;97 -->
<g id="edge10" class="edge">
<title>thalachh&#45;&gt;97</title>
<path fill="none" stroke="green" stroke-width="0.7" d="M79.26,-103.13C92.88,-90.31 119.49,-65.27 138.1,-47.76"/>
<polygon fill="green" stroke="green" stroke-width="0.7" points="140.64,-50.18 145.53,-40.78 135.85,-45.08 140.64,-50.18"/>
</g>
<!-- exng -->
<g id="node5" class="node">
<title>exng</title>
<polygon fill="lightgray" stroke="black" points="239.5,-121.37 205.5,-121.37 205.5,-103.37 239.5,-103.37 239.5,-121.37"/>
<text text-anchor="middle" x="222.5" y="-110.17" font-family="Times New Roman,serif" font-size="9.00">exng</text>
</g>
<!-- exng&#45;&gt;output -->
<g id="edge9" class="edge">
<title>exng&#45;&gt;output</title>
<path fill="none" stroke="red" stroke-width="0.23" d="M223.99,-103.13C225.62,-94.17 228.32,-79.25 230.88,-65.1"/>
<polygon fill="red" stroke="red" stroke-width="0.23" points="234.37,-65.49 232.71,-55.03 227.48,-64.24 234.37,-65.49"/>
</g>
<!-- exng&#45;&gt;97 -->
<g id="edge3" class="edge">
<title>exng&#45;&gt;97</title>
<path fill="none" stroke="green" stroke-width="0.41" d="M216.13,-103.13C206.73,-90.97 188.81,-67.79 175.44,-50.49"/>
<polygon fill="green" stroke="green" stroke-width="0.41" points="178.18,-48.31 169.3,-42.54 172.64,-52.59 178.18,-48.31"/>
</g>
<!-- oldpeak -->
<g id="node6" class="node">
<title>oldpeak</title>
<polygon fill="lightgray" stroke="black" points="301.5,-121.37 257.5,-121.37 257.5,-103.37 301.5,-103.37 301.5,-121.37"/>
<text text-anchor="middle" x="279.5" y="-110.17" font-family="Times New Roman,serif" font-size="9.00">oldpeak</text>
</g>
<!-- oldpeak&#45;&gt;output -->
<g id="edge7" class="edge">
<title>oldpeak&#45;&gt;output</title>
<path fill="none" stroke="red" stroke-width="0.72" d="M275.32,-103.13C270.41,-93.44 261.94,-76.76 254.27,-61.63"/>
<polygon fill="red" stroke="red" stroke-width="0.72" points="257.28,-59.83 249.63,-52.49 251.04,-62.99 257.28,-59.83"/>
</g>
<!-- oldpeak&#45;&gt;97 -->
<g id="edge4" class="edge">
<title>oldpeak&#45;&gt;97</title>
<path fill="none" stroke="red" stroke-width="0.18" d="M267.46,-103.13C247.56,-89.52 207.5,-62.11 181.9,-44.58"/>
<polygon fill="red" stroke="red" stroke-width="0.18" points="183.73,-41.6 173.5,-38.84 179.77,-47.37 183.73,-41.6"/>
</g>
<!-- slp -->
<g id="node7" class="node">
<title>slp</title>
<polygon fill="lightgray" stroke="black" points="440,-121.37 413,-121.37 413,-103.37 440,-103.37 440,-121.37"/>
<text text-anchor="middle" x="426.5" y="-110.17" font-family="Times New Roman,serif" font-size="9.00">slp</text>
</g>
<!-- caa -->
<g id="node8" class="node">
<title>caa</title>
<polygon fill="lightgray" stroke="black" points="347.5,-121.37 319.5,-121.37 319.5,-103.37 347.5,-103.37 347.5,-121.37"/>
<text text-anchor="middle" x="333.5" y="-110.17" font-family="Times New Roman,serif" font-size="9.00">caa</text>
</g>
<!-- caa&#45;&gt;output -->
<g id="edge6" class="edge">
<title>caa&#45;&gt;output</title>
<path fill="none" stroke="red" stroke-width="0.53" d="M324.12,-103.08C319.96,-99.41 315,-95.06 310.5,-91.15 295.75,-78.35 279.23,-64.17 265.64,-52.56"/>
<polygon fill="red" stroke="red" stroke-width="0.53" points="267.89,-49.88 258.01,-46.04 263.34,-55.2 267.89,-49.88"/>
</g>
<!-- thall -->
<g id="node9" class="node">
<title>thall</title>
<polygon fill="lightgray" stroke="black" points="143.5,-121.37 111.5,-121.37 111.5,-103.37 143.5,-103.37 143.5,-121.37"/>
<text text-anchor="middle" x="127.5" y="-110.17" font-family="Times New Roman,serif" font-size="9.00">thall</text>
</g>
<!-- thall&#45;&gt;97 -->
<g id="edge5" class="edge">
<title>thall&#45;&gt;97</title>
<path fill="none" stroke="green" stroke-width="0.24" stroke-dasharray="1,5" d="M130.59,-103.13C134.77,-91.95 142.44,-71.47 148.68,-54.79"/>
<polygon fill="green" stroke="green" stroke-width="0.24" points="152.11,-55.62 152.34,-45.02 145.56,-53.16 152.11,-55.62"/>
</g>
<!-- 554 -->
<g id="node12" class="node">
<title>554</title>
<ellipse fill="white" stroke="black" cx="479.5" cy="-112.37" rx="21.43" ry="21.43"/>
<text text-anchor="middle" x="479.5" y="-110.17" font-family="Times New Roman,serif" font-size="9.00">554</text>
</g>
</g>
</svg>
