<?xml version="1.0" encoding="utf-8" standalone="no"?>
<!DOCTYPE svg PUBLIC "-//W3C//DTD SVG 1.1//EN"
  "http://www.w3.org/Graphics/SVG/1.1/DTD/svg11.dtd">
<!-- Created with matplotlib (https://matplotlib.org/) -->
<svg height="345.6pt" version="1.1" viewBox="0 0 460.8 345.6" width="460.8pt" xmlns="http://www.w3.org/2000/svg" xmlns:xlink="http://www.w3.org/1999/xlink">
 <defs>
  <style type="text/css">
*{stroke-linecap:butt;stroke-linejoin:round;}
  </style>
 </defs>
 <g id="figure_1">
  <g id="patch_1">
   <path d="M 0 345.6 
L 460.8 345.6 
L 460.8 0 
L 0 0 
z
" style="fill:#ffffff;"/>
  </g>
  <g id="axes_1">
   <g id="patch_2">
    <path d="M 57.6 307.584 
L 414.72 307.584 
L 414.72 41.472 
L 57.6 41.472 
z
" style="fill:#ffffff;"/>
   </g>
   <g id="matplotlib.axis_1">
    <g id="xtick_1">
     <g id="line2d_1">
      <path clip-path="url(#p827380e646)" d="M 73.832727 307.584 
L 73.832727 41.472 
" style="fill:none;stroke:#b0b0b0;stroke-linecap:square;stroke-width:0.8;"/>
     </g>
     <g id="line2d_2">
      <defs>
       <path d="M 0 0 
L 0 3.5 
" id="m8366032793" style="stroke:#000000;stroke-width:0.8;"/>
      </defs>
      <g>
       <use style="stroke:#000000;stroke-width:0.8;" x="73.832727" xlink:href="#m8366032793" y="307.584"/>
      </g>
     </g>
     <g id="text_1">
      <!-- 0 -->
      <defs>
       <path d="M 31.78125 66.40625 
Q 24.171875 66.40625 20.328125 58.90625 
Q 16.5 51.421875 16.5 36.375 
Q 16.5 21.390625 20.328125 13.890625 
Q 24.171875 6.390625 31.78125 6.390625 
Q 39.453125 6.390625 43.28125 13.890625 
Q 47.125 21.390625 47.125 36.375 
Q 47.125 51.421875 43.28125 58.90625 
Q 39.453125 66.40625 31.78125 66.40625 
z
M 31.78125 74.21875 
Q 44.046875 74.21875 50.515625 64.515625 
Q 56.984375 54.828125 56.984375 36.375 
Q 56.984375 17.96875 50.515625 8.265625 
Q 44.046875 -1.421875 31.78125 -1.421875 
Q 19.53125 -1.421875 13.0625 8.265625 
Q 6.59375 17.96875 6.59375 36.375 
Q 6.59375 54.828125 13.0625 64.515625 
Q 19.53125 74.21875 31.78125 74.21875 
z
" id="DejaVuSans-48"/>
      </defs>
      <g transform="translate(70.651477 322.182437)scale(0.1 -0.1)">
       <use xlink:href="#DejaVuSans-48"/>
      </g>
     </g>
    </g>
    <g id="xtick_2">
     <g id="line2d_3">
      <path clip-path="url(#p827380e646)" d="M 128.122785 307.584 
L 128.122785 41.472 
" style="fill:none;stroke:#b0b0b0;stroke-linecap:square;stroke-width:0.8;"/>
     </g>
     <g id="line2d_4">
      <g>
       <use style="stroke:#000000;stroke-width:0.8;" x="128.122785" xlink:href="#m8366032793" y="307.584"/>
      </g>
     </g>
     <g id="text_2">
      <!-- 50 -->
      <defs>
       <path d="M 10.796875 72.90625 
L 49.515625 72.90625 
L 49.515625 64.59375 
L 19.828125 64.59375 
L 19.828125 46.734375 
Q 21.96875 47.46875 24.109375 47.828125 
Q 26.265625 48.1875 28.421875 48.1875 
Q 40.625 48.1875 47.75 41.5 
Q 54.890625 34.8125 54.890625 23.390625 
Q 54.890625 11.625 47.5625 5.09375 
Q 40.234375 -1.421875 26.90625 -1.421875 
Q 22.3125 -1.421875 17.546875 -0.640625 
Q 12.796875 0.140625 7.71875 1.703125 
L 7.71875 11.625 
Q 12.109375 9.234375 16.796875 8.0625 
Q 21.484375 6.890625 26.703125 6.890625 
Q 35.15625 6.890625 40.078125 11.328125 
Q 45.015625 15.765625 45.015625 23.390625 
Q 45.015625 31 40.078125 35.4375 
Q 35.15625 39.890625 26.703125 39.890625 
Q 22.75 39.890625 18.8125 39.015625 
Q 14.890625 38.140625 10.796875 36.28125 
z
" id="DejaVuSans-53"/>
      </defs>
      <g transform="translate(121.760285 322.182437)scale(0.1 -0.1)">
       <use xlink:href="#DejaVuSans-53"/>
       <use x="63.623047" xlink:href="#DejaVuSans-48"/>
      </g>
     </g>
    </g>
    <g id="xtick_3">
     <g id="line2d_5">
      <path clip-path="url(#p827380e646)" d="M 182.412843 307.584 
L 182.412843 41.472 
" style="fill:none;stroke:#b0b0b0;stroke-linecap:square;stroke-width:0.8;"/>
     </g>
     <g id="line2d_6">
      <g>
       <use style="stroke:#000000;stroke-width:0.8;" x="182.412843" xlink:href="#m8366032793" y="307.584"/>
      </g>
     </g>
     <g id="text_3">
      <!-- 100 -->
      <defs>
       <path d="M 12.40625 8.296875 
L 28.515625 8.296875 
L 28.515625 63.921875 
L 10.984375 60.40625 
L 10.984375 69.390625 
L 28.421875 72.90625 
L 38.28125 72.90625 
L 38.28125 8.296875 
L 54.390625 8.296875 
L 54.390625 0 
L 12.40625 0 
z
" id="DejaVuSans-49"/>
      </defs>
      <g transform="translate(172.869093 322.182437)scale(0.1 -0.1)">
       <use xlink:href="#DejaVuSans-49"/>
       <use x="63.623047" xlink:href="#DejaVuSans-48"/>
       <use x="127.246094" xlink:href="#DejaVuSans-48"/>
      </g>
     </g>
    </g>
    <g id="xtick_4">
     <g id="line2d_7">
      <path clip-path="url(#p827380e646)" d="M 236.702901 307.584 
L 236.702901 41.472 
" style="fill:none;stroke:#b0b0b0;stroke-linecap:square;stroke-width:0.8;"/>
     </g>
     <g id="line2d_8">
      <g>
       <use style="stroke:#000000;stroke-width:0.8;" x="236.702901" xlink:href="#m8366032793" y="307.584"/>
      </g>
     </g>
     <g id="text_4">
      <!-- 150 -->
      <g transform="translate(227.159151 322.182437)scale(0.1 -0.1)">
       <use xlink:href="#DejaVuSans-49"/>
       <use x="63.623047" xlink:href="#DejaVuSans-53"/>
       <use x="127.246094" xlink:href="#DejaVuSans-48"/>
      </g>
     </g>
    </g>
    <g id="xtick_5">
     <g id="line2d_9">
      <path clip-path="url(#p827380e646)" d="M 290.992958 307.584 
L 290.992958 41.472 
" style="fill:none;stroke:#b0b0b0;stroke-linecap:square;stroke-width:0.8;"/>
     </g>
     <g id="line2d_10">
      <g>
       <use style="stroke:#000000;stroke-width:0.8;" x="290.992958" xlink:href="#m8366032793" y="307.584"/>
      </g>
     </g>
     <g id="text_5">
      <!-- 200 -->
      <defs>
       <path d="M 19.1875 8.296875 
L 53.609375 8.296875 
L 53.609375 0 
L 7.328125 0 
L 7.328125 8.296875 
Q 12.9375 14.109375 22.625 23.890625 
Q 32.328125 33.6875 34.8125 36.53125 
Q 39.546875 41.84375 41.421875 45.53125 
Q 43.3125 49.21875 43.3125 52.78125 
Q 43.3125 58.59375 39.234375 62.25 
Q 35.15625 65.921875 28.609375 65.921875 
Q 23.96875 65.921875 18.8125 64.3125 
Q 13.671875 62.703125 7.8125 59.421875 
L 7.8125 69.390625 
Q 13.765625 71.78125 18.9375 73 
Q 24.125 74.21875 28.421875 74.21875 
Q 39.75 74.21875 46.484375 68.546875 
Q 53.21875 62.890625 53.21875 53.421875 
Q 53.21875 48.921875 51.53125 44.890625 
Q 49.859375 40.875 45.40625 35.40625 
Q 44.1875 33.984375 37.640625 27.21875 
Q 31.109375 20.453125 19.1875 8.296875 
z
" id="DejaVuSans-50"/>
      </defs>
      <g transform="translate(281.449208 322.182437)scale(0.1 -0.1)">
       <use xlink:href="#DejaVuSans-50"/>
       <use x="63.623047" xlink:href="#DejaVuSans-48"/>
       <use x="127.246094" xlink:href="#DejaVuSans-48"/>
      </g>
     </g>
    </g>
    <g id="xtick_6">
     <g id="line2d_11">
      <path clip-path="url(#p827380e646)" d="M 345.283016 307.584 
L 345.283016 41.472 
" style="fill:none;stroke:#b0b0b0;stroke-linecap:square;stroke-width:0.8;"/>
     </g>
     <g id="line2d_12">
      <g>
       <use style="stroke:#000000;stroke-width:0.8;" x="345.283016" xlink:href="#m8366032793" y="307.584"/>
      </g>
     </g>
     <g id="text_6">
      <!-- 250 -->
      <g transform="translate(335.739266 322.182437)scale(0.1 -0.1)">
       <use xlink:href="#DejaVuSans-50"/>
       <use x="63.623047" xlink:href="#DejaVuSans-53"/>
       <use x="127.246094" xlink:href="#DejaVuSans-48"/>
      </g>
     </g>
    </g>
    <g id="xtick_7">
     <g id="line2d_13">
      <path clip-path="url(#p827380e646)" d="M 399.573074 307.584 
L 399.573074 41.472 
" style="fill:none;stroke:#b0b0b0;stroke-linecap:square;stroke-width:0.8;"/>
     </g>
     <g id="line2d_14">
      <g>
       <use style="stroke:#000000;stroke-width:0.8;" x="399.573074" xlink:href="#m8366032793" y="307.584"/>
      </g>
     </g>
     <g id="text_7">
      <!-- 300 -->
      <defs>
       <path d="M 40.578125 39.3125 
Q 47.65625 37.796875 51.625 33 
Q 55.609375 28.21875 55.609375 21.1875 
Q 55.609375 10.40625 48.1875 4.484375 
Q 40.765625 -1.421875 27.09375 -1.421875 
Q 22.515625 -1.421875 17.65625 -0.515625 
Q 12.796875 0.390625 7.625 2.203125 
L 7.625 11.71875 
Q 11.71875 9.328125 16.59375 8.109375 
Q 21.484375 6.890625 26.8125 6.890625 
Q 36.078125 6.890625 40.9375 10.546875 
Q 45.796875 14.203125 45.796875 21.1875 
Q 45.796875 27.640625 41.28125 31.265625 
Q 36.765625 34.90625 28.71875 34.90625 
L 20.21875 34.90625 
L 20.21875 43.015625 
L 29.109375 43.015625 
Q 36.375 43.015625 40.234375 45.921875 
Q 44.09375 48.828125 44.09375 54.296875 
Q 44.09375 59.90625 40.109375 62.90625 
Q 36.140625 65.921875 28.71875 65.921875 
Q 24.65625 65.921875 20.015625 65.03125 
Q 15.375 64.15625 9.8125 62.3125 
L 9.8125 71.09375 
Q 15.4375 72.65625 20.34375 73.4375 
Q 25.25 74.21875 29.59375 74.21875 
Q 40.828125 74.21875 47.359375 69.109375 
Q 53.90625 64.015625 53.90625 55.328125 
Q 53.90625 49.265625 50.4375 45.09375 
Q 46.96875 40.921875 40.578125 39.3125 
z
" id="DejaVuSans-51"/>
      </defs>
      <g transform="translate(390.029324 322.182437)scale(0.1 -0.1)">
       <use xlink:href="#DejaVuSans-51"/>
       <use x="63.623047" xlink:href="#DejaVuSans-48"/>
       <use x="127.246094" xlink:href="#DejaVuSans-48"/>
      </g>
     </g>
    </g>
    <g id="text_8">
     <!-- Generations -->
     <defs>
      <path d="M 59.515625 10.40625 
L 59.515625 29.984375 
L 43.40625 29.984375 
L 43.40625 38.09375 
L 69.28125 38.09375 
L 69.28125 6.78125 
Q 63.578125 2.734375 56.6875 0.65625 
Q 49.8125 -1.421875 42 -1.421875 
Q 24.90625 -1.421875 15.25 8.5625 
Q 5.609375 18.5625 5.609375 36.375 
Q 5.609375 54.25 15.25 64.234375 
Q 24.90625 74.21875 42 74.21875 
Q 49.125 74.21875 55.546875 72.453125 
Q 61.96875 70.703125 67.390625 67.28125 
L 67.390625 56.78125 
Q 61.921875 61.421875 55.765625 63.765625 
Q 49.609375 66.109375 42.828125 66.109375 
Q 29.4375 66.109375 22.71875 58.640625 
Q 16.015625 51.171875 16.015625 36.375 
Q 16.015625 21.625 22.71875 14.15625 
Q 29.4375 6.6875 42.828125 6.6875 
Q 48.046875 6.6875 52.140625 7.59375 
Q 56.25 8.5 59.515625 10.40625 
z
" id="DejaVuSans-71"/>
      <path d="M 56.203125 29.59375 
L 56.203125 25.203125 
L 14.890625 25.203125 
Q 15.484375 15.921875 20.484375 11.0625 
Q 25.484375 6.203125 34.421875 6.203125 
Q 39.59375 6.203125 44.453125 7.46875 
Q 49.3125 8.734375 54.109375 11.28125 
L 54.109375 2.78125 
Q 49.265625 0.734375 44.1875 -0.34375 
Q 39.109375 -1.421875 33.890625 -1.421875 
Q 20.796875 -1.421875 13.15625 6.1875 
Q 5.515625 13.8125 5.515625 26.8125 
Q 5.515625 40.234375 12.765625 48.109375 
Q 20.015625 56 32.328125 56 
Q 43.359375 56 49.78125 48.890625 
Q 56.203125 41.796875 56.203125 29.59375 
z
M 47.21875 32.234375 
Q 47.125 39.59375 43.09375 43.984375 
Q 39.0625 48.390625 32.421875 48.390625 
Q 24.90625 48.390625 20.390625 44.140625 
Q 15.875 39.890625 15.1875 32.171875 
z
" id="DejaVuSans-101"/>
      <path d="M 54.890625 33.015625 
L 54.890625 0 
L 45.90625 0 
L 45.90625 32.71875 
Q 45.90625 40.484375 42.875 44.328125 
Q 39.84375 48.1875 33.796875 48.1875 
Q 26.515625 48.1875 22.3125 43.546875 
Q 18.109375 38.921875 18.109375 30.90625 
L 18.109375 0 
L 9.078125 0 
L 9.078125 54.6875 
L 18.109375 54.6875 
L 18.109375 46.1875 
Q 21.34375 51.125 25.703125 53.5625 
Q 30.078125 56 35.796875 56 
Q 45.21875 56 50.046875 50.171875 
Q 54.890625 44.34375 54.890625 33.015625 
z
" id="DejaVuSans-110"/>
      <path d="M 41.109375 46.296875 
Q 39.59375 47.171875 37.8125 47.578125 
Q 36.03125 48 33.890625 48 
Q 26.265625 48 22.1875 43.046875 
Q 18.109375 38.09375 18.109375 28.8125 
L 18.109375 0 
L 9.078125 0 
L 9.078125 54.6875 
L 18.109375 54.6875 
L 18.109375 46.1875 
Q 20.953125 51.171875 25.484375 53.578125 
Q 30.03125 56 36.53125 56 
Q 37.453125 56 38.578125 55.875 
Q 39.703125 55.765625 41.0625 55.515625 
z
" id="DejaVuSans-114"/>
      <path d="M 34.28125 27.484375 
Q 23.390625 27.484375 19.1875 25 
Q 14.984375 22.515625 14.984375 16.5 
Q 14.984375 11.71875 18.140625 8.90625 
Q 21.296875 6.109375 26.703125 6.109375 
Q 34.1875 6.109375 38.703125 11.40625 
Q 43.21875 16.703125 43.21875 25.484375 
L 43.21875 27.484375 
z
M 52.203125 31.203125 
L 52.203125 0 
L 43.21875 0 
L 43.21875 8.296875 
Q 40.140625 3.328125 35.546875 0.953125 
Q 30.953125 -1.421875 24.3125 -1.421875 
Q 15.921875 -1.421875 10.953125 3.296875 
Q 6 8.015625 6 15.921875 
Q 6 25.140625 12.171875 29.828125 
Q 18.359375 34.515625 30.609375 34.515625 
L 43.21875 34.515625 
L 43.21875 35.40625 
Q 43.21875 41.609375 39.140625 45 
Q 35.0625 48.390625 27.6875 48.390625 
Q 23 48.390625 18.546875 47.265625 
Q 14.109375 46.140625 10.015625 43.890625 
L 10.015625 52.203125 
Q 14.9375 54.109375 19.578125 55.046875 
Q 24.21875 56 28.609375 56 
Q 40.484375 56 46.34375 49.84375 
Q 52.203125 43.703125 52.203125 31.203125 
z
" id="DejaVuSans-97"/>
      <path d="M 18.3125 70.21875 
L 18.3125 54.6875 
L 36.8125 54.6875 
L 36.8125 47.703125 
L 18.3125 47.703125 
L 18.3125 18.015625 
Q 18.3125 11.328125 20.140625 9.421875 
Q 21.96875 7.515625 27.59375 7.515625 
L 36.8125 7.515625 
L 36.8125 0 
L 27.59375 0 
Q 17.1875 0 13.234375 3.875 
Q 9.28125 7.765625 9.28125 18.015625 
L 9.28125 47.703125 
L 2.6875 47.703125 
L 2.6875 54.6875 
L 9.28125 54.6875 
L 9.28125 70.21875 
z
" id="DejaVuSans-116"/>
      <path d="M 9.421875 54.6875 
L 18.40625 54.6875 
L 18.40625 0 
L 9.421875 0 
z
M 9.421875 75.984375 
L 18.40625 75.984375 
L 18.40625 64.59375 
L 9.421875 64.59375 
z
" id="DejaVuSans-105"/>
      <path d="M 30.609375 48.390625 
Q 23.390625 48.390625 19.1875 42.75 
Q 14.984375 37.109375 14.984375 27.296875 
Q 14.984375 17.484375 19.15625 11.84375 
Q 23.34375 6.203125 30.609375 6.203125 
Q 37.796875 6.203125 41.984375 11.859375 
Q 46.1875 17.53125 46.1875 27.296875 
Q 46.1875 37.015625 41.984375 42.703125 
Q 37.796875 48.390625 30.609375 48.390625 
z
M 30.609375 56 
Q 42.328125 56 49.015625 48.375 
Q 55.71875 40.765625 55.71875 27.296875 
Q 55.71875 13.875 49.015625 6.21875 
Q 42.328125 -1.421875 30.609375 -1.421875 
Q 18.84375 -1.421875 12.171875 6.21875 
Q 5.515625 13.875 5.515625 27.296875 
Q 5.515625 40.765625 12.171875 48.375 
Q 18.84375 56 30.609375 56 
z
" id="DejaVuSans-111"/>
      <path d="M 44.28125 53.078125 
L 44.28125 44.578125 
Q 40.484375 46.53125 36.375 47.5 
Q 32.28125 48.484375 27.875 48.484375 
Q 21.1875 48.484375 17.84375 46.4375 
Q 14.5 44.390625 14.5 40.28125 
Q 14.5 37.15625 16.890625 35.375 
Q 19.28125 33.59375 26.515625 31.984375 
L 29.59375 31.296875 
Q 39.15625 29.25 43.1875 25.515625 
Q 47.21875 21.78125 47.21875 15.09375 
Q 47.21875 7.46875 41.1875 3.015625 
Q 35.15625 -1.421875 24.609375 -1.421875 
Q 20.21875 -1.421875 15.453125 -0.5625 
Q 10.6875 0.296875 5.421875 2 
L 5.421875 11.28125 
Q 10.40625 8.6875 15.234375 7.390625 
Q 20.0625 6.109375 24.8125 6.109375 
Q 31.15625 6.109375 34.5625 8.28125 
Q 37.984375 10.453125 37.984375 14.40625 
Q 37.984375 18.0625 35.515625 20.015625 
Q 33.0625 21.96875 24.703125 23.78125 
L 21.578125 24.515625 
Q 13.234375 26.265625 9.515625 29.90625 
Q 5.8125 33.546875 5.8125 39.890625 
Q 5.8125 47.609375 11.28125 51.796875 
Q 16.75 56 26.8125 56 
Q 31.78125 56 36.171875 55.265625 
Q 40.578125 54.546875 44.28125 53.078125 
z
" id="DejaVuSans-115"/>
     </defs>
     <g transform="translate(205.662344 335.860562)scale(0.1 -0.1)">
      <use xlink:href="#DejaVuSans-71"/>
      <use x="77.490234" xlink:href="#DejaVuSans-101"/>
      <use x="139.013672" xlink:href="#DejaVuSans-110"/>
      <use x="202.392578" xlink:href="#DejaVuSans-101"/>
      <use x="263.916016" xlink:href="#DejaVuSans-114"/>
      <use x="305.029297" xlink:href="#DejaVuSans-97"/>
      <use x="366.308594" xlink:href="#DejaVuSans-116"/>
      <use x="405.517578" xlink:href="#DejaVuSans-105"/>
      <use x="433.300781" xlink:href="#DejaVuSans-111"/>
      <use x="494.482422" xlink:href="#DejaVuSans-110"/>
      <use x="557.861328" xlink:href="#DejaVuSans-115"/>
     </g>
    </g>
   </g>
   <g id="matplotlib.axis_2">
    <g id="ytick_1">
     <g id="line2d_15">
      <path clip-path="url(#p827380e646)" d="M 57.6 280.076647 
L 414.72 280.076647 
" style="fill:none;stroke:#b0b0b0;stroke-linecap:square;stroke-width:0.8;"/>
     </g>
     <g id="line2d_16">
      <defs>
       <path d="M 0 0 
L -3.5 0 
" id="ma29914fb90" style="stroke:#000000;stroke-width:0.8;"/>
      </defs>
      <g>
       <use style="stroke:#000000;stroke-width:0.8;" x="57.6" xlink:href="#ma29914fb90" y="280.076647"/>
      </g>
     </g>
     <g id="text_9">
      <!-- 140 -->
      <defs>
       <path d="M 37.796875 64.3125 
L 12.890625 25.390625 
L 37.796875 25.390625 
z
M 35.203125 72.90625 
L 47.609375 72.90625 
L 47.609375 25.390625 
L 58.015625 25.390625 
L 58.015625 17.1875 
L 47.609375 17.1875 
L 47.609375 0 
L 37.796875 0 
L 37.796875 17.1875 
L 4.890625 17.1875 
L 4.890625 26.703125 
z
" id="DejaVuSans-52"/>
      </defs>
      <g transform="translate(31.5125 283.875866)scale(0.1 -0.1)">
       <use xlink:href="#DejaVuSans-49"/>
       <use x="63.623047" xlink:href="#DejaVuSans-52"/>
       <use x="127.246094" xlink:href="#DejaVuSans-48"/>
      </g>
     </g>
    </g>
    <g id="ytick_2">
     <g id="line2d_17">
      <path clip-path="url(#p827380e646)" d="M 57.6 243.621723 
L 414.72 243.621723 
" style="fill:none;stroke:#b0b0b0;stroke-linecap:square;stroke-width:0.8;"/>
     </g>
     <g id="line2d_18">
      <g>
       <use style="stroke:#000000;stroke-width:0.8;" x="57.6" xlink:href="#ma29914fb90" y="243.621723"/>
      </g>
     </g>
     <g id="text_10">
      <!-- 160 -->
      <defs>
       <path d="M 33.015625 40.375 
Q 26.375 40.375 22.484375 35.828125 
Q 18.609375 31.296875 18.609375 23.390625 
Q 18.609375 15.53125 22.484375 10.953125 
Q 26.375 6.390625 33.015625 6.390625 
Q 39.65625 6.390625 43.53125 10.953125 
Q 47.40625 15.53125 47.40625 23.390625 
Q 47.40625 31.296875 43.53125 35.828125 
Q 39.65625 40.375 33.015625 40.375 
z
M 52.59375 71.296875 
L 52.59375 62.3125 
Q 48.875 64.0625 45.09375 64.984375 
Q 41.3125 65.921875 37.59375 65.921875 
Q 27.828125 65.921875 22.671875 59.328125 
Q 17.53125 52.734375 16.796875 39.40625 
Q 19.671875 43.65625 24.015625 45.921875 
Q 28.375 48.1875 33.59375 48.1875 
Q 44.578125 48.1875 50.953125 41.515625 
Q 57.328125 34.859375 57.328125 23.390625 
Q 57.328125 12.15625 50.6875 5.359375 
Q 44.046875 -1.421875 33.015625 -1.421875 
Q 20.359375 -1.421875 13.671875 8.265625 
Q 6.984375 17.96875 6.984375 36.375 
Q 6.984375 53.65625 15.1875 63.9375 
Q 23.390625 74.21875 37.203125 74.21875 
Q 40.921875 74.21875 44.703125 73.484375 
Q 48.484375 72.75 52.59375 71.296875 
z
" id="DejaVuSans-54"/>
      </defs>
      <g transform="translate(31.5125 247.420942)scale(0.1 -0.1)">
       <use xlink:href="#DejaVuSans-49"/>
       <use x="63.623047" xlink:href="#DejaVuSans-54"/>
       <use x="127.246094" xlink:href="#DejaVuSans-48"/>
      </g>
     </g>
    </g>
    <g id="ytick_3">
     <g id="line2d_19">
      <path clip-path="url(#p827380e646)" d="M 57.6 207.1668 
L 414.72 207.1668 
" style="fill:none;stroke:#b0b0b0;stroke-linecap:square;stroke-width:0.8;"/>
     </g>
     <g id="line2d_20">
      <g>
       <use style="stroke:#000000;stroke-width:0.8;" x="57.6" xlink:href="#ma29914fb90" y="207.1668"/>
      </g>
     </g>
     <g id="text_11">
      <!-- 180 -->
      <defs>
       <path d="M 31.78125 34.625 
Q 24.75 34.625 20.71875 30.859375 
Q 16.703125 27.09375 16.703125 20.515625 
Q 16.703125 13.921875 20.71875 10.15625 
Q 24.75 6.390625 31.78125 6.390625 
Q 38.8125 6.390625 42.859375 10.171875 
Q 46.921875 13.96875 46.921875 20.515625 
Q 46.921875 27.09375 42.890625 30.859375 
Q 38.875 34.625 31.78125 34.625 
z
M 21.921875 38.8125 
Q 15.578125 40.375 12.03125 44.71875 
Q 8.5 49.078125 8.5 55.328125 
Q 8.5 64.0625 14.71875 69.140625 
Q 20.953125 74.21875 31.78125 74.21875 
Q 42.671875 74.21875 48.875 69.140625 
Q 55.078125 64.0625 55.078125 55.328125 
Q 55.078125 49.078125 51.53125 44.71875 
Q 48 40.375 41.703125 38.8125 
Q 48.828125 37.15625 52.796875 32.3125 
Q 56.78125 27.484375 56.78125 20.515625 
Q 56.78125 9.90625 50.3125 4.234375 
Q 43.84375 -1.421875 31.78125 -1.421875 
Q 19.734375 -1.421875 13.25 4.234375 
Q 6.78125 9.90625 6.78125 20.515625 
Q 6.78125 27.484375 10.78125 32.3125 
Q 14.796875 37.15625 21.921875 38.8125 
z
M 18.3125 54.390625 
Q 18.3125 48.734375 21.84375 45.5625 
Q 25.390625 42.390625 31.78125 42.390625 
Q 38.140625 42.390625 41.71875 45.5625 
Q 45.3125 48.734375 45.3125 54.390625 
Q 45.3125 60.0625 41.71875 63.234375 
Q 38.140625 66.40625 31.78125 66.40625 
Q 25.390625 66.40625 21.84375 63.234375 
Q 18.3125 60.0625 18.3125 54.390625 
z
" id="DejaVuSans-56"/>
      </defs>
      <g transform="translate(31.5125 210.966019)scale(0.1 -0.1)">
       <use xlink:href="#DejaVuSans-49"/>
       <use x="63.623047" xlink:href="#DejaVuSans-56"/>
       <use x="127.246094" xlink:href="#DejaVuSans-48"/>
      </g>
     </g>
    </g>
    <g id="ytick_4">
     <g id="line2d_21">
      <path clip-path="url(#p827380e646)" d="M 57.6 170.711876 
L 414.72 170.711876 
" style="fill:none;stroke:#b0b0b0;stroke-linecap:square;stroke-width:0.8;"/>
     </g>
     <g id="line2d_22">
      <g>
       <use style="stroke:#000000;stroke-width:0.8;" x="57.6" xlink:href="#ma29914fb90" y="170.711876"/>
      </g>
     </g>
     <g id="text_12">
      <!-- 200 -->
      <g transform="translate(31.5125 174.511095)scale(0.1 -0.1)">
       <use xlink:href="#DejaVuSans-50"/>
       <use x="63.623047" xlink:href="#DejaVuSans-48"/>
       <use x="127.246094" xlink:href="#DejaVuSans-48"/>
      </g>
     </g>
    </g>
    <g id="ytick_5">
     <g id="line2d_23">
      <path clip-path="url(#p827380e646)" d="M 57.6 134.256953 
L 414.72 134.256953 
" style="fill:none;stroke:#b0b0b0;stroke-linecap:square;stroke-width:0.8;"/>
     </g>
     <g id="line2d_24">
      <g>
       <use style="stroke:#000000;stroke-width:0.8;" x="57.6" xlink:href="#ma29914fb90" y="134.256953"/>
      </g>
     </g>
     <g id="text_13">
      <!-- 220 -->
      <g transform="translate(31.5125 138.056172)scale(0.1 -0.1)">
       <use xlink:href="#DejaVuSans-50"/>
       <use x="63.623047" xlink:href="#DejaVuSans-50"/>
       <use x="127.246094" xlink:href="#DejaVuSans-48"/>
      </g>
     </g>
    </g>
    <g id="ytick_6">
     <g id="line2d_25">
      <path clip-path="url(#p827380e646)" d="M 57.6 97.802029 
L 414.72 97.802029 
" style="fill:none;stroke:#b0b0b0;stroke-linecap:square;stroke-width:0.8;"/>
     </g>
     <g id="line2d_26">
      <g>
       <use style="stroke:#000000;stroke-width:0.8;" x="57.6" xlink:href="#ma29914fb90" y="97.802029"/>
      </g>
     </g>
     <g id="text_14">
      <!-- 240 -->
      <g transform="translate(31.5125 101.601248)scale(0.1 -0.1)">
       <use xlink:href="#DejaVuSans-50"/>
       <use x="63.623047" xlink:href="#DejaVuSans-52"/>
       <use x="127.246094" xlink:href="#DejaVuSans-48"/>
      </g>
     </g>
    </g>
    <g id="ytick_7">
     <g id="line2d_27">
      <path clip-path="url(#p827380e646)" d="M 57.6 61.347106 
L 414.72 61.347106 
" style="fill:none;stroke:#b0b0b0;stroke-linecap:square;stroke-width:0.8;"/>
     </g>
     <g id="line2d_28">
      <g>
       <use style="stroke:#000000;stroke-width:0.8;" x="57.6" xlink:href="#ma29914fb90" y="61.347106"/>
      </g>
     </g>
     <g id="text_15">
      <!-- 260 -->
      <g transform="translate(31.5125 65.146325)scale(0.1 -0.1)">
       <use xlink:href="#DejaVuSans-50"/>
       <use x="63.623047" xlink:href="#DejaVuSans-54"/>
       <use x="127.246094" xlink:href="#DejaVuSans-48"/>
      </g>
     </g>
    </g>
    <g id="text_16">
     <!-- Fitness -->
     <defs>
      <path d="M 9.8125 72.90625 
L 51.703125 72.90625 
L 51.703125 64.59375 
L 19.671875 64.59375 
L 19.671875 43.109375 
L 48.578125 43.109375 
L 48.578125 34.8125 
L 19.671875 34.8125 
L 19.671875 0 
L 9.8125 0 
z
" id="DejaVuSans-70"/>
     </defs>
     <g transform="translate(25.432812 191.845187)rotate(-90)scale(0.1 -0.1)">
      <use xlink:href="#DejaVuSans-70"/>
      <use x="50.269531" xlink:href="#DejaVuSans-105"/>
      <use x="78.052734" xlink:href="#DejaVuSans-116"/>
      <use x="117.261719" xlink:href="#DejaVuSans-110"/>
      <use x="180.640625" xlink:href="#DejaVuSans-101"/>
      <use x="242.164062" xlink:href="#DejaVuSans-115"/>
      <use x="294.263672" xlink:href="#DejaVuSans-115"/>
     </g>
    </g>
   </g>
   <g id="line2d_29">
    <path clip-path="url(#p827380e646)" d="M 73.832727 258.422422 
L 74.918528 258.878109 
L 95.54875 258.878109 
L 96.634552 253.261247 
L 97.720353 231.628054 
L 98.806154 228.360692 
L 99.891955 230.352131 
L 100.977756 222.550778 
L 102.063557 218.639379 
L 103.149358 204.843692 
L 104.23516 228.184179 
L 105.320961 229.672135 
L 106.406762 212.151453 
L 107.492563 216.094536 
L 108.578364 218.289271 
L 109.664165 231.827483 
L 110.749967 227.105411 
L 111.835768 219.107647 
L 112.921569 222.356351 
L 114.00737 211.991716 
L 115.093171 216.098256 
L 116.178972 222.040409 
L 117.264773 223.720311 
L 118.350575 204.860468 
L 119.436376 203.092426 
L 120.522177 204.469136 
L 121.607978 227.663395 
L 122.693779 220.545757 
L 123.77958 204.94305 
L 124.865382 220.363482 
L 125.951183 214.680978 
L 127.036984 203.521308 
L 128.122785 206.916619 
L 129.208586 220.144753 
L 130.294387 204.359771 
L 131.380189 207.349075 
L 132.46599 195.209585 
L 133.551791 199.219627 
L 134.637592 193.254411 
L 135.723393 207.31262 
L 136.809194 195.756409 
L 137.894995 190.976525 
L 138.980797 194.043027 
L 140.066598 198.198889 
L 141.152399 189.868581 
L 142.2382 185.865688 
L 143.324001 182.814911 
L 144.409802 184.783477 
L 145.495604 192.33465 
L 146.581405 186.294569 
L 147.667206 188.306957 
L 148.753007 181.174439 
L 149.838808 164.760052 
L 150.924609 178.337651 
L 152.01041 186.902151 
L 153.096212 164.623904 
L 154.182013 176.680477 
L 155.267814 167.467388 
L 156.353615 176.328911 
L 157.439416 180.978773 
L 158.525217 177.346672 
L 159.611019 163.347982 
L 160.69682 166.774745 
L 161.782621 150.187754 
L 162.868422 151.354312 
L 163.954223 158.645297 
L 165.040024 148.510828 
L 166.125825 146.359987 
L 167.211627 150.989763 
L 168.297428 148.365008 
L 169.383229 171.696159 
L 170.46903 145.375705 
L 171.554831 153.687427 
L 172.640632 151.682406 
L 173.726434 142.714495 
L 174.812235 142.860315 
L 175.898036 144.026872 
L 176.983837 141.183388 
L 178.069638 135.532875 
L 179.155439 136.662978 
L 180.24124 136.590068 
L 181.327042 134.001768 
L 182.412843 153.359333 
L 183.498644 128.46062 
L 184.584445 122.117463 
L 185.670246 131.194739 
L 187.841849 131.996748 
L 188.92765 136.772343 
L 190.013451 127.549247 
L 191.099252 125.216132 
L 192.185053 145.630889 
L 193.270854 138.558634 
L 194.356656 129.371993 
L 195.442457 132.762301 
L 196.528258 139.871011 
L 197.614059 127.257608 
L 198.69986 134.402773 
L 199.785661 138.522179 
L 200.871462 151.026218 
L 201.957264 151.135582 
L 203.043065 120.805086 
L 204.128866 136.808798 
L 205.214667 124.231849 
L 206.300468 132.179022 
L 207.386269 135.678695 
L 208.472071 137.355621 
L 209.557872 136.772343 
L 210.643673 120.732176 
L 211.729474 117.268959 
L 212.815275 142.386401 
L 213.901076 130.210456 
L 214.986877 132.069657 
L 216.072679 130.866645 
L 217.15848 142.021852 
L 218.244281 120.258262 
L 219.330082 144.026872 
L 220.415883 138.266994 
L 221.501684 139.871011 
L 222.587486 142.240581 
L 223.673287 130.502096 
L 224.759088 113.915106 
L 225.844889 120.877996 
L 226.93069 137.610806 
L 228.016491 138.485724 
L 229.102292 140.818839 
L 230.188094 129.918817 
L 231.273895 134.293408 
L 232.359696 138.15763 
L 233.445497 144.573696 
L 234.531298 131.194739 
L 235.617099 130.246911 
L 236.702901 128.569985 
L 237.788702 124.377669 
L 238.874503 130.793735 
L 239.960304 135.095416 
L 241.046105 121.279 
L 242.131906 122.044554 
L 243.217708 135.751605 
L 244.303509 122.482013 
L 245.38931 132.981031 
L 246.475111 131.996748 
L 247.560912 128.861624 
L 248.646713 138.996093 
L 249.732514 142.459311 
L 250.818316 120.914451 
L 251.904117 121.869719 
L 252.989918 141.475028 
L 254.075719 118.90943 
L 255.16152 112.718789 
L 256.247321 123.729664 
L 257.333123 112.607192 
L 258.418924 124.785821 
L 259.504725 101.697703 
L 260.590526 111.025874 
L 261.676327 119.383344 
L 262.762128 104.582645 
L 263.847929 124.851583 
L 266.019532 143.297774 
L 267.105333 119.377392 
L 268.191134 121.49773 
L 269.276935 112.904783 
L 270.362736 126.631178 
L 271.448538 122.081008 
L 272.534339 119.273979 
L 273.62014 123.211111 
L 274.705941 102.905719 
L 275.791742 130.392731 
L 276.877543 129.532692 
L 277.963344 122.874089 
L 279.049146 129.038895 
L 280.134947 120.818667 
L 281.220748 111.253896 
L 282.306549 123.952857 
L 283.39235 109.891672 
L 284.478151 131.559289 
L 285.563953 123.757935 
L 286.649754 135.131871 
L 287.735555 118.654246 
L 289.907157 122.117463 
L 290.992958 119.273979 
L 292.07876 121.971644 
L 293.164561 116.649225 
L 294.250362 126.564964 
L 295.336163 123.94021 
L 296.421964 127.840886 
L 297.507765 125.070312 
L 298.593566 139.032548 
L 299.679368 131.705108 
L 300.765169 130.611461 
L 301.85097 129.043899 
L 302.936771 136.735888 
L 304.022572 131.121829 
L 305.108373 122.445558 
L 306.194175 128.168981 
L 308.365777 113.149552 
L 309.451578 133.855949 
L 310.537379 134.111133 
L 311.62318 132.361297 
L 312.708981 136.991072 
L 313.794783 149.531566 
L 314.880584 139.579372 
L 317.052186 112.712093 
L 318.137987 121.643549 
L 319.223788 116.39404 
L 320.30959 136.225519 
L 321.395391 114.060925 
L 322.481192 116.029491 
L 323.566993 122.226828 
L 324.652794 139.397097 
L 325.738595 123.101746 
L 326.824396 133.491399 
L 327.910198 135.71515 
L 328.995999 127.366972 
L 330.0818 139.251277 
L 331.167601 132.142567 
L 332.253402 137.209802 
L 333.339203 126.856603 
L 334.425005 122.737197 
L 335.510806 132.762301 
L 336.596607 122.044554 
L 337.682408 115.300393 
L 338.768209 116.75859 
L 339.85401 134.366318 
L 340.939811 129.080354 
L 342.025613 120.003078 
L 343.111414 144.172692 
L 345.283016 130.356276 
L 346.368817 130.647915 
L 347.454618 138.266994 
L 348.54042 123.211111 
L 349.626221 128.241891 
L 350.712022 154.416526 
L 351.797823 144.026872 
L 352.883624 138.449269 
L 353.969425 134.220498 
L 355.055227 120.221807 
L 356.141028 113.368282 
L 357.226829 122.883017 
L 358.31263 131.04892 
L 359.398431 133.855949 
L 360.484232 105.348199 
L 361.570033 123.64857 
L 362.655835 125.580681 
L 363.741636 138.449269 
L 364.827437 120.950906 
L 365.913238 148.401463 
L 366.999039 142.349946 
L 368.08484 118.945885 
L 369.170642 130.174001 
L 370.256443 118.872975 
L 371.342244 131.595743 
L 372.428045 140.636565 
L 373.513846 131.121829 
L 374.599647 116.68568 
L 375.685448 125.471316 
L 376.77125 126.601419 
L 377.857051 121.42482 
L 378.942852 129.481358 
L 380.028653 118.945885 
L 381.114454 121.935189 
L 382.200255 133.41849 
L 383.286057 130.246911 
L 384.371858 126.16396 
L 385.457659 128.497075 
L 386.54346 145.594434 
L 387.629261 124.268304 
L 388.715062 117.013774 
L 389.800863 144.573696 
L 391.972466 123.903755 
L 393.058267 139.907466 
L 394.144068 128.825169 
L 395.229869 133.564309 
L 396.31567 131.705108 
L 397.401472 135.49642 
L 398.487273 130.174001 
L 398.487273 130.174001 
" style="fill:none;stroke:#0000ff;stroke-linecap:square;stroke-width:1.5;"/>
   </g>
   <g id="line2d_30">
    <path clip-path="url(#p827380e646)" d="M 73.832727 291.777462 
L 74.918528 290.625989 
L 95.54875 290.625989 
L 96.634552 290.811479 
L 97.720353 281.704289 
L 98.806154 279.431987 
L 99.891955 279.087388 
L 100.977756 268.035012 
L 102.063557 272.171089 
L 103.149358 257.710206 
L 104.23516 282.968274 
L 105.320961 288.170125 
L 106.406762 272.082173 
L 107.492563 271.777403 
L 108.578364 275.439594 
L 109.664165 283.701681 
L 110.749967 282.89796 
L 111.835768 267.328846 
L 112.921569 280.191465 
L 114.00737 270.087742 
L 115.093171 278.463084 
L 116.178972 280.239824 
L 117.264773 292.747201 
L 118.350575 265.18025 
L 119.436376 261.973427 
L 120.522177 258.011032 
L 121.607978 295.488 
L 122.693779 275.836724 
L 123.77958 265.716031 
L 124.865382 280.333283 
L 125.951183 269.577004 
L 127.036984 264.457952 
L 128.122785 267.691642 
L 129.208586 283.054206 
L 130.294387 266.826758 
L 131.380189 268.68252 
L 132.46599 252.011644 
L 133.551791 265.620406 
L 134.637592 259.51358 
L 135.723393 274.484553 
L 136.809194 264.195428 
L 137.894995 265.581868 
L 138.980797 275.841897 
L 140.066598 272.289286 
L 141.152399 260.181563 
L 142.2382 254.284509 
L 143.324001 247.317219 
L 144.409802 256.797445 
L 145.495604 263.191835 
L 146.581405 257.511511 
L 147.667206 262.724101 
L 148.753007 251.218958 
L 149.838808 224.420898 
L 150.924609 245.818632 
L 152.01041 259.108678 
L 153.096212 227.053011 
L 154.182013 243.728353 
L 155.267814 231.558928 
L 157.439416 254.681016 
L 158.525217 245.704038 
L 159.611019 222.377903 
L 160.69682 232.226674 
L 161.782621 208.319139 
L 162.868422 208.597701 
L 163.954223 211.725581 
L 165.040024 204.286492 
L 167.211627 216.00913 
L 168.297428 206.956373 
L 169.383229 242.27501 
L 170.46903 198.518994 
L 171.554831 213.636227 
L 172.640632 210.686657 
L 173.726434 189.714153 
L 174.812235 202.668658 
L 175.898036 209.693069 
L 176.983837 207.207069 
L 178.069638 202.930379 
L 179.155439 190.918928 
L 180.24124 201.98886 
L 181.327042 192.782447 
L 182.412843 216.555013 
L 183.498644 182.17159 
L 184.584445 175.100917 
L 185.670246 190.179031 
L 186.756047 182.086181 
L 187.841849 192.582769 
L 188.92765 197.764262 
L 190.013451 192.413856 
L 191.099252 177.895653 
L 192.185053 210.877626 
L 193.270854 199.765745 
L 194.356656 187.300278 
L 195.442457 194.18175 
L 196.528258 203.513665 
L 197.614059 190.747141 
L 198.69986 198.312153 
L 199.785661 201.620386 
L 200.871462 213.664009 
L 201.957264 227.019472 
L 203.043065 171.884783 
L 204.128866 196.136316 
L 205.214667 185.014627 
L 206.300468 195.86882 
L 207.386269 198.30194 
L 208.472071 193.388689 
L 209.557872 201.560537 
L 210.643673 168.787855 
L 211.729474 165.068634 
L 212.815275 206.222303 
L 213.901076 196.199195 
L 214.986877 202.872965 
L 216.072679 191.689596 
L 217.15848 206.469589 
L 218.244281 175.523782 
L 219.330082 213.01319 
L 220.415883 196.848367 
L 221.501684 203.965195 
L 222.587486 207.20392 
L 223.673287 188.341954 
L 224.759088 158.26797 
L 225.844889 172.86636 
L 226.93069 201.867053 
L 228.016491 211.652526 
L 229.102292 209.642414 
L 230.188094 193.905142 
L 231.273895 194.98017 
L 232.359696 204.815345 
L 233.445497 211.033341 
L 234.531298 195.536843 
L 235.617099 188.34993 
L 236.702901 186.928203 
L 237.788702 178.635639 
L 238.874503 197.350932 
L 239.960304 199.447609 
L 241.046105 175.13446 
L 242.131906 170.381706 
L 243.217708 203.290379 
L 244.303509 181.548225 
L 245.38931 198.307857 
L 247.560912 188.793075 
L 248.646713 203.567632 
L 249.732514 213.169882 
L 250.818316 176.462999 
L 251.904117 178.663878 
L 252.989918 210.975897 
L 254.075719 173.760572 
L 255.16152 164.220772 
L 256.247321 186.093775 
L 257.333123 171.646384 
L 258.418924 182.782182 
L 259.504725 143.473792 
L 260.590526 166.679911 
L 261.676327 182.149746 
L 262.762128 151.78303 
L 263.847929 190.07265 
L 264.933731 207.610202 
L 266.019532 218.173347 
L 267.105333 174.609231 
L 268.191134 175.42145 
L 269.276935 164.256894 
L 270.362736 188.548367 
L 271.448538 185.378808 
L 272.534339 178.078709 
L 273.62014 188.394523 
L 274.705941 140.602648 
L 275.791742 200.682361 
L 276.877543 189.565312 
L 277.963344 186.11837 
L 279.049146 193.867731 
L 280.134947 180.305477 
L 281.220748 162.977369 
L 282.306549 186.718263 
L 283.39235 157.259738 
L 284.478151 195.776103 
L 285.563953 182.142245 
L 286.649754 206.045122 
L 287.735555 172.101639 
L 288.821356 172.98241 
L 289.907157 176.67894 
L 290.992958 179.809232 
L 292.07876 184.393513 
L 293.164561 176.927427 
L 294.250362 181.886785 
L 295.336163 183.310956 
L 296.421964 186.619564 
L 297.507765 187.526395 
L 298.593566 216.315172 
L 299.679368 199.780225 
L 300.765169 191.904536 
L 301.85097 186.67037 
L 302.936771 200.374282 
L 304.022572 197.001474 
L 305.108373 184.050323 
L 306.194175 185.066241 
L 307.279976 172.172668 
L 308.365777 164.183958 
L 309.451578 199.845694 
L 310.537379 194.174246 
L 311.62318 196.29575 
L 312.708981 207.051185 
L 313.794783 219.235715 
L 314.880584 205.936185 
L 315.966385 188.416433 
L 317.052186 162.873975 
L 318.137987 180.04866 
L 319.223788 171.960002 
L 320.30959 198.918279 
L 321.395391 161.481537 
L 322.481192 167.972321 
L 323.566993 176.907998 
L 324.652794 210.124995 
L 325.738595 182.510567 
L 326.824396 200.722907 
L 327.910198 201.289441 
L 328.995999 187.136696 
L 330.0818 205.662113 
L 331.167601 198.710855 
L 332.253402 209.014795 
L 334.425005 176.199856 
L 335.510806 199.924193 
L 336.596607 177.649068 
L 337.682408 175.170876 
L 338.768209 171.800695 
L 339.85401 203.305084 
L 340.939811 191.558137 
L 342.025613 175.606923 
L 343.111414 217.766651 
L 344.197215 201.763069 
L 345.283016 191.614661 
L 346.368817 194.669124 
L 347.454618 210.325202 
L 348.54042 181.724852 
L 349.626221 184.883563 
L 350.712022 233.257333 
L 351.797823 209.876978 
L 352.883624 206.467015 
L 353.969425 202.418969 
L 355.055227 173.935944 
L 356.141028 165.232006 
L 357.226829 181.763711 
L 358.31263 195.191521 
L 359.398431 201.235743 
L 360.484232 152.437194 
L 361.570033 186.478808 
L 362.655835 186.887372 
L 363.741636 203.014891 
L 364.827437 168.773944 
L 365.913238 225.494413 
L 366.999039 214.259683 
L 368.08484 175.319155 
L 369.170642 194.257527 
L 370.256443 175.064618 
L 371.342244 198.471613 
L 372.428045 207.420999 
L 373.513846 197.849318 
L 374.599647 171.275342 
L 375.685448 190.550952 
L 376.77125 190.339181 
L 377.857051 176.793068 
L 378.942852 190.301992 
L 380.028653 168.091124 
L 381.114454 184.543864 
L 382.200255 192.756322 
L 383.286057 187.390513 
L 384.371858 187.623934 
L 385.457659 190.068523 
L 386.54346 213.870613 
L 387.629261 176.65219 
L 388.715062 165.101411 
L 389.800863 216.918683 
L 390.886665 200.892341 
L 391.972466 180.376467 
L 393.058267 204.381428 
L 394.144068 182.75319 
L 395.229869 198.335066 
L 396.31567 195.208915 
L 397.401472 204.153189 
L 398.487273 189.314809 
L 398.487273 189.314809 
" style="fill:none;stroke:#008000;stroke-dasharray:9.6,2.4,1.5,2.4;stroke-dashoffset:0;stroke-width:1.5;"/>
   </g>
   <g id="line2d_31">
    <path clip-path="url(#p827380e646)" d="M 73.832727 225.067383 
L 74.918528 227.130229 
L 95.54875 227.130229 
L 96.634552 215.711014 
L 97.720353 181.551819 
L 98.806154 177.289397 
L 99.891955 181.616875 
L 100.977756 177.066544 
L 103.149358 151.977178 
L 104.23516 173.400085 
L 105.320961 171.174145 
L 106.406762 152.220732 
L 107.492563 160.41167 
L 108.578364 161.138949 
L 109.664165 179.953286 
L 110.749967 171.312862 
L 111.835768 170.886449 
L 112.921569 164.521237 
L 114.00737 153.89569 
L 115.093171 153.733428 
L 116.178972 163.840994 
L 117.264773 154.693422 
L 118.350575 144.540686 
L 119.436376 144.211425 
L 120.522177 150.92724 
L 121.607978 159.838789 
L 122.693779 165.254789 
L 123.77958 144.170068 
L 124.865382 160.393682 
L 125.951183 159.784952 
L 127.036984 142.584663 
L 128.122785 146.141597 
L 129.208586 157.235299 
L 130.294387 141.892783 
L 131.380189 146.015629 
L 132.46599 138.407526 
L 134.637592 126.995241 
L 135.723393 140.140686 
L 136.809194 127.317389 
L 137.894995 116.371182 
L 138.980797 112.244158 
L 140.066598 124.108492 
L 141.152399 119.555599 
L 142.2382 117.446866 
L 143.324001 118.312603 
L 144.409802 112.769509 
L 145.495604 121.477464 
L 146.581405 115.077627 
L 147.667206 113.889813 
L 148.753007 111.129921 
L 149.838808 105.099206 
L 150.924609 110.85667 
L 152.01041 114.695625 
L 153.096212 102.194797 
L 154.182013 109.6326 
L 155.267814 103.375848 
L 156.353615 109.356092 
L 157.439416 107.27653 
L 158.525217 108.989307 
L 159.611019 104.318061 
L 160.69682 101.322815 
L 161.782621 92.056369 
L 162.868422 94.110923 
L 163.954223 105.565013 
L 165.040024 92.735164 
L 166.125825 82.442373 
L 168.297428 89.773644 
L 169.383229 101.117309 
L 170.46903 92.232415 
L 171.554831 93.738627 
L 172.640632 92.678156 
L 173.726434 95.714837 
L 174.812235 83.051971 
L 175.898036 78.360676 
L 176.983837 75.159707 
L 178.069638 68.135372 
L 179.155439 82.407028 
L 180.24124 71.191276 
L 181.327042 75.22109 
L 182.412843 90.163653 
L 183.498644 74.74965 
L 184.584445 69.13401 
L 185.670246 72.210448 
L 186.756047 81.032396 
L 187.841849 71.410727 
L 188.92765 75.780423 
L 190.013451 62.684638 
L 191.099252 72.53661 
L 192.185053 80.384152 
L 193.270854 77.351523 
L 194.356656 71.443709 
L 195.442457 71.342852 
L 196.528258 76.228357 
L 197.614059 63.768074 
L 198.69986 70.493393 
L 199.785661 75.423972 
L 200.871462 88.388427 
L 201.957264 75.251693 
L 203.043065 69.72539 
L 204.128866 77.481279 
L 205.214667 63.449071 
L 207.386269 73.055449 
L 208.472071 81.322554 
L 209.557872 71.984148 
L 210.643673 72.676497 
L 211.729474 69.469283 
L 212.815275 78.550499 
L 213.901076 64.221718 
L 214.986877 61.26635 
L 216.072679 70.043694 
L 217.15848 77.574114 
L 218.244281 64.992742 
L 219.330082 75.040555 
L 220.415883 79.685622 
L 221.501684 75.776828 
L 222.587486 77.277243 
L 223.673287 72.662238 
L 224.759088 69.562241 
L 225.844889 68.889632 
L 226.93069 73.354559 
L 228.016491 65.318922 
L 229.102292 71.995265 
L 230.188094 65.932492 
L 231.273895 73.606646 
L 232.359696 71.499914 
L 233.445497 78.114051 
L 234.531298 66.852636 
L 235.617099 72.143893 
L 236.702901 70.211766 
L 237.788702 70.119698 
L 238.874503 64.236539 
L 239.960304 70.743224 
L 241.046105 67.423541 
L 242.131906 73.707401 
L 243.217708 68.21283 
L 244.303509 63.4158 
L 245.38931 67.654204 
L 246.475111 70.412134 
L 247.560912 68.930173 
L 248.646713 74.424554 
L 249.732514 71.748739 
L 250.818316 65.365903 
L 251.904117 65.075559 
L 252.989918 71.974158 
L 254.075719 64.058288 
L 255.16152 61.216806 
L 256.247321 61.365553 
L 257.333123 53.568 
L 258.418924 66.789459 
L 259.504725 59.921613 
L 260.590526 55.371838 
L 261.676327 56.616943 
L 262.762128 57.382261 
L 263.847929 59.630515 
L 264.933731 60.903704 
L 266.019532 68.422201 
L 267.105333 64.145554 
L 268.191134 67.574009 
L 269.276935 61.552673 
L 270.362736 64.713989 
L 271.448538 58.783209 
L 272.534339 60.46925 
L 273.62014 58.0277 
L 274.705941 65.208789 
L 275.791742 60.103101 
L 276.877543 69.500073 
L 277.963344 59.629808 
L 279.049146 64.210059 
L 280.134947 61.331858 
L 281.220748 59.530423 
L 282.306549 61.187451 
L 283.39235 62.523607 
L 284.478151 67.342474 
L 285.563953 65.373625 
L 286.649754 64.21862 
L 287.735555 65.206852 
L 288.821356 67.971574 
L 289.907157 67.555987 
L 290.992958 58.738726 
L 292.07876 59.549775 
L 293.164561 56.371023 
L 294.250362 71.243143 
L 295.336163 64.569463 
L 296.421964 69.062208 
L 297.507765 62.614229 
L 298.593566 61.749924 
L 299.679368 63.629992 
L 300.765169 69.318385 
L 301.85097 71.417427 
L 302.936771 73.097493 
L 304.022572 65.242185 
L 305.108373 60.840792 
L 306.194175 71.27172 
L 307.279976 69.729144 
L 308.365777 62.115146 
L 310.537379 74.048021 
L 311.62318 68.426844 
L 312.708981 66.930959 
L 313.794783 79.827416 
L 314.880584 73.222558 
L 315.966385 63.765667 
L 317.052186 62.550211 
L 318.137987 63.238438 
L 319.223788 60.828078 
L 320.30959 73.532758 
L 321.395391 66.640314 
L 322.481192 64.086662 
L 323.566993 67.545658 
L 324.652794 68.6692 
L 325.738595 63.692926 
L 326.824396 66.259892 
L 327.910198 70.140859 
L 328.995999 67.597249 
L 330.0818 72.840442 
L 331.167601 65.57428 
L 332.253402 65.404808 
L 333.339203 60.841568 
L 334.425005 69.274538 
L 335.510806 65.600409 
L 336.596607 66.440039 
L 337.682408 55.429909 
L 338.768209 61.716484 
L 339.85401 65.427551 
L 340.939811 66.60257 
L 342.025613 64.399232 
L 343.111414 70.578733 
L 344.197215 72.073256 
L 345.283016 69.097891 
L 346.368817 66.626707 
L 347.454618 66.208787 
L 348.54042 64.69737 
L 349.626221 71.600218 
L 350.712022 75.575718 
L 351.797823 78.176767 
L 352.883624 70.431523 
L 353.969425 66.022027 
L 355.055227 66.50767 
L 356.141028 61.504558 
L 357.226829 64.002323 
L 358.31263 66.906319 
L 359.398431 66.476155 
L 360.484232 58.259203 
L 361.570033 60.818332 
L 362.655835 64.273991 
L 363.741636 73.883647 
L 364.827437 73.127868 
L 365.913238 71.308513 
L 366.999039 70.440209 
L 368.08484 62.572616 
L 369.170642 66.090476 
L 370.256443 62.681332 
L 371.342244 64.719874 
L 372.428045 73.85213 
L 373.513846 64.394341 
L 374.599647 62.096017 
L 375.685448 60.391681 
L 376.77125 62.863657 
L 377.857051 66.056571 
L 378.942852 68.660723 
L 380.028653 69.800646 
L 381.114454 59.326513 
L 382.200255 74.080657 
L 383.286057 73.10331 
L 384.371858 64.703986 
L 385.457659 66.925626 
L 386.54346 77.318255 
L 387.629261 71.884418 
L 388.715062 68.926137 
L 389.800863 72.22871 
L 390.886665 67.111196 
L 391.972466 67.431042 
L 393.058267 75.433504 
L 394.144068 74.897148 
L 395.229869 68.793553 
L 396.31567 68.201301 
L 397.401472 66.839652 
L 398.487273 71.033194 
L 398.487273 71.033194 
" style="fill:none;stroke:#008000;stroke-dasharray:9.6,2.4,1.5,2.4;stroke-dashoffset:0;stroke-width:1.5;"/>
   </g>
   <g id="line2d_32">
    <path clip-path="url(#p827380e646)" d="M 73.832727 139.725191 
L 95.54875 139.725191 
L 96.634552 128.788714 
L 97.720353 128.788714 
L 98.806154 126.965968 
L 102.063557 126.965968 
L 103.149358 125.143222 
L 106.406762 125.143222 
L 107.492563 123.320476 
L 127.036984 123.320476 
L 128.122785 117.852237 
L 135.723393 117.852237 
L 136.809194 116.029491 
L 141.152399 116.029491 
L 142.2382 114.206745 
L 144.409802 114.206745 
L 145.495604 110.561253 
L 153.096212 110.561253 
L 154.182013 106.91576 
L 158.525217 106.91576 
L 159.611019 101.447522 
L 160.69682 101.447522 
L 161.782621 81.397314 
L 166.125825 81.397314 
L 167.211627 75.929075 
L 176.983837 75.929075 
L 178.069638 72.283583 
L 200.871462 72.283583 
L 201.957264 68.638091 
L 220.415883 68.638091 
L 221.501684 63.169852 
L 289.907157 63.169852 
L 290.992958 57.701613 
L 314.880584 57.701613 
L 315.966385 55.878867 
L 339.85401 55.878867 
L 340.939811 54.056121 
L 398.487273 54.056121 
L 398.487273 54.056121 
" style="fill:none;stroke:#ff0000;stroke-linecap:square;stroke-width:1.5;"/>
   </g>
   <g id="patch_3">
    <path d="M 57.6 307.584 
L 57.6 41.472 
" style="fill:none;stroke:#000000;stroke-linecap:square;stroke-linejoin:miter;stroke-width:0.8;"/>
   </g>
   <g id="patch_4">
    <path d="M 414.72 307.584 
L 414.72 41.472 
" style="fill:none;stroke:#000000;stroke-linecap:square;stroke-linejoin:miter;stroke-width:0.8;"/>
   </g>
   <g id="patch_5">
    <path d="M 57.6 307.584 
L 414.72 307.584 
" style="fill:none;stroke:#000000;stroke-linecap:square;stroke-linejoin:miter;stroke-width:0.8;"/>
   </g>
   <g id="patch_6">
    <path d="M 57.6 41.472 
L 414.72 41.472 
" style="fill:none;stroke:#000000;stroke-linecap:square;stroke-linejoin:miter;stroke-width:0.8;"/>
   </g>
   <g id="text_17">
    <!-- Population's average and best fitness -->
    <defs>
     <path d="M 19.671875 64.796875 
L 19.671875 37.40625 
L 32.078125 37.40625 
Q 38.96875 37.40625 42.71875 40.96875 
Q 46.484375 44.53125 46.484375 51.125 
Q 46.484375 57.671875 42.71875 61.234375 
Q 38.96875 64.796875 32.078125 64.796875 
z
M 9.8125 72.90625 
L 32.078125 72.90625 
Q 44.34375 72.90625 50.609375 67.359375 
Q 56.890625 61.8125 56.890625 51.125 
Q 56.890625 40.328125 50.609375 34.8125 
Q 44.34375 29.296875 32.078125 29.296875 
L 19.671875 29.296875 
L 19.671875 0 
L 9.8125 0 
z
" id="DejaVuSans-80"/>
     <path d="M 18.109375 8.203125 
L 18.109375 -20.796875 
L 9.078125 -20.796875 
L 9.078125 54.6875 
L 18.109375 54.6875 
L 18.109375 46.390625 
Q 20.953125 51.265625 25.265625 53.625 
Q 29.59375 56 35.59375 56 
Q 45.5625 56 51.78125 48.09375 
Q 58.015625 40.1875 58.015625 27.296875 
Q 58.015625 14.40625 51.78125 6.484375 
Q 45.5625 -1.421875 35.59375 -1.421875 
Q 29.59375 -1.421875 25.265625 0.953125 
Q 20.953125 3.328125 18.109375 8.203125 
z
M 48.6875 27.296875 
Q 48.6875 37.203125 44.609375 42.84375 
Q 40.53125 48.484375 33.40625 48.484375 
Q 26.265625 48.484375 22.1875 42.84375 
Q 18.109375 37.203125 18.109375 27.296875 
Q 18.109375 17.390625 22.1875 11.75 
Q 26.265625 6.109375 33.40625 6.109375 
Q 40.53125 6.109375 44.609375 11.75 
Q 48.6875 17.390625 48.6875 27.296875 
z
" id="DejaVuSans-112"/>
     <path d="M 8.5 21.578125 
L 8.5 54.6875 
L 17.484375 54.6875 
L 17.484375 21.921875 
Q 17.484375 14.15625 20.5 10.265625 
Q 23.53125 6.390625 29.59375 6.390625 
Q 36.859375 6.390625 41.078125 11.03125 
Q 45.3125 15.671875 45.3125 23.6875 
L 45.3125 54.6875 
L 54.296875 54.6875 
L 54.296875 0 
L 45.3125 0 
L 45.3125 8.40625 
Q 42.046875 3.421875 37.71875 1 
Q 33.40625 -1.421875 27.6875 -1.421875 
Q 18.265625 -1.421875 13.375 4.4375 
Q 8.5 10.296875 8.5 21.578125 
z
M 31.109375 56 
z
" id="DejaVuSans-117"/>
     <path d="M 9.421875 75.984375 
L 18.40625 75.984375 
L 18.40625 0 
L 9.421875 0 
z
" id="DejaVuSans-108"/>
     <path d="M 17.921875 72.90625 
L 17.921875 45.796875 
L 9.625 45.796875 
L 9.625 72.90625 
z
" id="DejaVuSans-39"/>
     <path id="DejaVuSans-32"/>
     <path d="M 2.984375 54.6875 
L 12.5 54.6875 
L 29.59375 8.796875 
L 46.6875 54.6875 
L 56.203125 54.6875 
L 35.6875 0 
L 23.484375 0 
z
" id="DejaVuSans-118"/>
     <path d="M 45.40625 27.984375 
Q 45.40625 37.75 41.375 43.109375 
Q 37.359375 48.484375 30.078125 48.484375 
Q 22.859375 48.484375 18.828125 43.109375 
Q 14.796875 37.75 14.796875 27.984375 
Q 14.796875 18.265625 18.828125 12.890625 
Q 22.859375 7.515625 30.078125 7.515625 
Q 37.359375 7.515625 41.375 12.890625 
Q 45.40625 18.265625 45.40625 27.984375 
z
M 54.390625 6.78125 
Q 54.390625 -7.171875 48.1875 -13.984375 
Q 42 -20.796875 29.203125 -20.796875 
Q 24.46875 -20.796875 20.265625 -20.09375 
Q 16.0625 -19.390625 12.109375 -17.921875 
L 12.109375 -9.1875 
Q 16.0625 -11.328125 19.921875 -12.34375 
Q 23.78125 -13.375 27.78125 -13.375 
Q 36.625 -13.375 41.015625 -8.765625 
Q 45.40625 -4.15625 45.40625 5.171875 
L 45.40625 9.625 
Q 42.625 4.78125 38.28125 2.390625 
Q 33.9375 0 27.875 0 
Q 17.828125 0 11.671875 7.65625 
Q 5.515625 15.328125 5.515625 27.984375 
Q 5.515625 40.671875 11.671875 48.328125 
Q 17.828125 56 27.875 56 
Q 33.9375 56 38.28125 53.609375 
Q 42.625 51.21875 45.40625 46.390625 
L 45.40625 54.6875 
L 54.390625 54.6875 
z
" id="DejaVuSans-103"/>
     <path d="M 45.40625 46.390625 
L 45.40625 75.984375 
L 54.390625 75.984375 
L 54.390625 0 
L 45.40625 0 
L 45.40625 8.203125 
Q 42.578125 3.328125 38.25 0.953125 
Q 33.9375 -1.421875 27.875 -1.421875 
Q 17.96875 -1.421875 11.734375 6.484375 
Q 5.515625 14.40625 5.515625 27.296875 
Q 5.515625 40.1875 11.734375 48.09375 
Q 17.96875 56 27.875 56 
Q 33.9375 56 38.25 53.625 
Q 42.578125 51.265625 45.40625 46.390625 
z
M 14.796875 27.296875 
Q 14.796875 17.390625 18.875 11.75 
Q 22.953125 6.109375 30.078125 6.109375 
Q 37.203125 6.109375 41.296875 11.75 
Q 45.40625 17.390625 45.40625 27.296875 
Q 45.40625 37.203125 41.296875 42.84375 
Q 37.203125 48.484375 30.078125 48.484375 
Q 22.953125 48.484375 18.875 42.84375 
Q 14.796875 37.203125 14.796875 27.296875 
z
" id="DejaVuSans-100"/>
     <path d="M 48.6875 27.296875 
Q 48.6875 37.203125 44.609375 42.84375 
Q 40.53125 48.484375 33.40625 48.484375 
Q 26.265625 48.484375 22.1875 42.84375 
Q 18.109375 37.203125 18.109375 27.296875 
Q 18.109375 17.390625 22.1875 11.75 
Q 26.265625 6.109375 33.40625 6.109375 
Q 40.53125 6.109375 44.609375 11.75 
Q 48.6875 17.390625 48.6875 27.296875 
z
M 18.109375 46.390625 
Q 20.953125 51.265625 25.265625 53.625 
Q 29.59375 56 35.59375 56 
Q 45.5625 56 51.78125 48.09375 
Q 58.015625 40.1875 58.015625 27.296875 
Q 58.015625 14.40625 51.78125 6.484375 
Q 45.5625 -1.421875 35.59375 -1.421875 
Q 29.59375 -1.421875 25.265625 0.953125 
Q 20.953125 3.328125 18.109375 8.203125 
L 18.109375 0 
L 9.078125 0 
L 9.078125 75.984375 
L 18.109375 75.984375 
z
" id="DejaVuSans-98"/>
     <path d="M 37.109375 75.984375 
L 37.109375 68.5 
L 28.515625 68.5 
Q 23.6875 68.5 21.796875 66.546875 
Q 19.921875 64.59375 19.921875 59.515625 
L 19.921875 54.6875 
L 34.71875 54.6875 
L 34.71875 47.703125 
L 19.921875 47.703125 
L 19.921875 0 
L 10.890625 0 
L 10.890625 47.703125 
L 2.296875 47.703125 
L 2.296875 54.6875 
L 10.890625 54.6875 
L 10.890625 58.5 
Q 10.890625 67.625 15.140625 71.796875 
Q 19.390625 75.984375 28.609375 75.984375 
z
" id="DejaVuSans-102"/>
    </defs>
    <g transform="translate(123.529687 35.472)scale(0.12 -0.12)">
     <use xlink:href="#DejaVuSans-80"/>
     <use x="56.677734" xlink:href="#DejaVuSans-111"/>
     <use x="117.859375" xlink:href="#DejaVuSans-112"/>
     <use x="181.335938" xlink:href="#DejaVuSans-117"/>
     <use x="244.714844" xlink:href="#DejaVuSans-108"/>
     <use x="272.498047" xlink:href="#DejaVuSans-97"/>
     <use x="333.777344" xlink:href="#DejaVuSans-116"/>
     <use x="372.986328" xlink:href="#DejaVuSans-105"/>
     <use x="400.769531" xlink:href="#DejaVuSans-111"/>
     <use x="461.951172" xlink:href="#DejaVuSans-110"/>
     <use x="525.330078" xlink:href="#DejaVuSans-39"/>
     <use x="552.820312" xlink:href="#DejaVuSans-115"/>
     <use x="604.919922" xlink:href="#DejaVuSans-32"/>
     <use x="636.707031" xlink:href="#DejaVuSans-97"/>
     <use x="697.986328" xlink:href="#DejaVuSans-118"/>
     <use x="757.166016" xlink:href="#DejaVuSans-101"/>
     <use x="818.689453" xlink:href="#DejaVuSans-114"/>
     <use x="859.802734" xlink:href="#DejaVuSans-97"/>
     <use x="921.082031" xlink:href="#DejaVuSans-103"/>
     <use x="984.558594" xlink:href="#DejaVuSans-101"/>
     <use x="1046.082031" xlink:href="#DejaVuSans-32"/>
     <use x="1077.869141" xlink:href="#DejaVuSans-97"/>
     <use x="1139.148438" xlink:href="#DejaVuSans-110"/>
     <use x="1202.527344" xlink:href="#DejaVuSans-100"/>
     <use x="1266.003906" xlink:href="#DejaVuSans-32"/>
     <use x="1297.791016" xlink:href="#DejaVuSans-98"/>
     <use x="1361.267578" xlink:href="#DejaVuSans-101"/>
     <use x="1422.791016" xlink:href="#DejaVuSans-115"/>
     <use x="1474.890625" xlink:href="#DejaVuSans-116"/>
     <use x="1514.099609" xlink:href="#DejaVuSans-32"/>
     <use x="1545.886719" xlink:href="#DejaVuSans-102"/>
     <use x="1581.091797" xlink:href="#DejaVuSans-105"/>
     <use x="1608.875" xlink:href="#DejaVuSans-116"/>
     <use x="1648.083984" xlink:href="#DejaVuSans-110"/>
     <use x="1711.462891" xlink:href="#DejaVuSans-101"/>
     <use x="1772.986328" xlink:href="#DejaVuSans-115"/>
     <use x="1825.085938" xlink:href="#DejaVuSans-115"/>
    </g>
   </g>
   <g id="legend_1">
    <g id="patch_7">
     <path d="M 64.6 108.1845 
L 137.540625 108.1845 
Q 139.540625 108.1845 139.540625 106.1845 
L 139.540625 48.472 
Q 139.540625 46.472 137.540625 46.472 
L 64.6 46.472 
Q 62.6 46.472 62.6 48.472 
L 62.6 106.1845 
Q 62.6 108.1845 64.6 108.1845 
z
" style="fill:#ffffff;opacity:0.8;stroke:#cccccc;stroke-linejoin:miter;"/>
    </g>
    <g id="line2d_33">
     <path d="M 66.6 54.570438 
L 86.6 54.570438 
" style="fill:none;stroke:#0000ff;stroke-linecap:square;stroke-width:1.5;"/>
    </g>
    <g id="line2d_34"/>
    <g id="text_18">
     <!-- average -->
     <g transform="translate(94.6 58.070438)scale(0.1 -0.1)">
      <use xlink:href="#DejaVuSans-97"/>
      <use x="61.279297" xlink:href="#DejaVuSans-118"/>
      <use x="120.458984" xlink:href="#DejaVuSans-101"/>
      <use x="181.982422" xlink:href="#DejaVuSans-114"/>
      <use x="223.095703" xlink:href="#DejaVuSans-97"/>
      <use x="284.375" xlink:href="#DejaVuSans-103"/>
      <use x="347.851562" xlink:href="#DejaVuSans-101"/>
     </g>
    </g>
    <g id="line2d_35">
     <path d="M 66.6 69.248563 
L 86.6 69.248563 
" style="fill:none;stroke:#008000;stroke-dasharray:9.6,2.4,1.5,2.4;stroke-dashoffset:0;stroke-width:1.5;"/>
    </g>
    <g id="line2d_36"/>
    <g id="text_19">
     <!-- -1 sd -->
     <defs>
      <path d="M 4.890625 31.390625 
L 31.203125 31.390625 
L 31.203125 23.390625 
L 4.890625 23.390625 
z
" id="DejaVuSans-45"/>
     </defs>
     <g transform="translate(94.6 72.748563)scale(0.1 -0.1)">
      <use xlink:href="#DejaVuSans-45"/>
      <use x="36.083984" xlink:href="#DejaVuSans-49"/>
      <use x="99.707031" xlink:href="#DejaVuSans-32"/>
      <use x="131.494141" xlink:href="#DejaVuSans-115"/>
      <use x="183.59375" xlink:href="#DejaVuSans-100"/>
     </g>
    </g>
    <g id="line2d_37">
     <path d="M 66.6 83.926688 
L 86.6 83.926688 
" style="fill:none;stroke:#008000;stroke-dasharray:9.6,2.4,1.5,2.4;stroke-dashoffset:0;stroke-width:1.5;"/>
    </g>
    <g id="line2d_38"/>
    <g id="text_20">
     <!-- +1 sd -->
     <defs>
      <path d="M 46 62.703125 
L 46 35.5 
L 73.1875 35.5 
L 73.1875 27.203125 
L 46 27.203125 
L 46 0 
L 37.796875 0 
L 37.796875 27.203125 
L 10.59375 27.203125 
L 10.59375 35.5 
L 37.796875 35.5 
L 37.796875 62.703125 
z
" id="DejaVuSans-43"/>
     </defs>
     <g transform="translate(94.6 87.426688)scale(0.1 -0.1)">
      <use xlink:href="#DejaVuSans-43"/>
      <use x="83.789062" xlink:href="#DejaVuSans-49"/>
      <use x="147.412109" xlink:href="#DejaVuSans-32"/>
      <use x="179.199219" xlink:href="#DejaVuSans-115"/>
      <use x="231.298828" xlink:href="#DejaVuSans-100"/>
     </g>
    </g>
    <g id="line2d_39">
     <path d="M 66.6 98.604813 
L 86.6 98.604813 
" style="fill:none;stroke:#ff0000;stroke-linecap:square;stroke-width:1.5;"/>
    </g>
    <g id="line2d_40"/>
    <g id="text_21">
     <!-- best -->
     <g transform="translate(94.6 102.104813)scale(0.1 -0.1)">
      <use xlink:href="#DejaVuSans-98"/>
      <use x="63.476562" xlink:href="#DejaVuSans-101"/>
      <use x="125" xlink:href="#DejaVuSans-115"/>
      <use x="177.099609" xlink:href="#DejaVuSans-116"/>
     </g>
    </g>
   </g>
  </g>
 </g>
 <defs>
  <clipPath id="p827380e646">
   <rect height="266.112" width="357.12" x="57.6" y="41.472"/>
  </clipPath>
 </defs>
</svg>
